<mxfile host="Electron" agent="Mozilla/5.0 (X11; Linux x86_64) AppleWebKit/537.36 (KHTML, like Gecko) draw.io/28.0.4 Chrome/138.0.7204.97 Electron/37.2.1 Safari/537.36" version="28.0.4">
  <diagram id="SDYpBdlp1A5q68Ps1epP" name="Wireframes">
    <mxGraphModel dx="1639" dy="1003" grid="1" gridSize="10" guides="1" tooltips="1" connect="1" arrows="1" fold="1" page="1" pageScale="1" pageWidth="1169" pageHeight="827" math="0" shadow="0">
      <root>
        <mxCell id="0" />
        <mxCell id="0rQHscwgg67SrnU-Jx7H-135" value="Logs" parent="0" visible="0" />
        <mxCell id="0rQHscwgg67SrnU-Jx7H-136" value="Logs" style="rounded=1;whiteSpace=wrap;html=1;fontFamily=Gochi Hand;fontSource=https%3A%2F%2Ffonts.googleapis.com%2Fcss%3Ffamily%3DGochi%2BHand;sketch=1;curveFitting=1;jiggle=2;fillColor=#bac8d3;strokeColor=#23445d;fontSize=21;labelPosition=center;verticalLabelPosition=middle;align=center;verticalAlign=middle;" parent="0rQHscwgg67SrnU-Jx7H-135" vertex="1">
          <mxGeometry x="290" y="110" width="750" height="50" as="geometry" />
        </mxCell>
        <mxCell id="0rQHscwgg67SrnU-Jx7H-137" value="" style="endArrow=none;html=1;rounded=0;sketch=1;curveFitting=1;jiggle=2;fillColor=#ffcc99;strokeColor=light-dark(#36393D,#FF8000);" parent="0rQHscwgg67SrnU-Jx7H-135" edge="1">
          <mxGeometry width="50" height="50" relative="1" as="geometry">
            <mxPoint x="270" y="630" as="sourcePoint" />
            <mxPoint x="270" y="110" as="targetPoint" />
          </mxGeometry>
        </mxCell>
        <mxCell id="0rQHscwgg67SrnU-Jx7H-179" value="" style="shape=table;startSize=0;container=1;collapsible=0;childLayout=tableLayout;sketch=1;curveFitting=1;jiggle=2;fontFamily=Gochi Hand;fontSource=https%3A%2F%2Ffonts.googleapis.com%2Fcss%3Ffamily%3DGochi%2BHand;fontSize=14;dashed=1;dashPattern=1 1;strokeColor=light-dark(#000000,#2E2E2E);" parent="0rQHscwgg67SrnU-Jx7H-135" vertex="1">
          <mxGeometry x="290" y="190" width="750" height="320" as="geometry" />
        </mxCell>
        <mxCell id="0rQHscwgg67SrnU-Jx7H-180" value="" style="shape=tableRow;horizontal=0;startSize=0;swimlaneHead=0;swimlaneBody=0;strokeColor=inherit;top=0;left=0;bottom=0;right=0;collapsible=0;dropTarget=0;fillColor=none;points=[[0,0.5],[1,0.5]];portConstraint=eastwest;" parent="0rQHscwgg67SrnU-Jx7H-179" vertex="1">
          <mxGeometry width="750" height="40" as="geometry" />
        </mxCell>
        <mxCell id="0rQHscwgg67SrnU-Jx7H-181" value="&lt;font face=&quot;Gochi Hand&quot;&gt;timestamp&lt;/font&gt;" style="shape=partialRectangle;html=1;whiteSpace=wrap;connectable=0;strokeColor=inherit;overflow=hidden;fillColor=none;top=0;left=0;bottom=0;right=0;pointerEvents=1;fontSize=19;fontStyle=1" parent="0rQHscwgg67SrnU-Jx7H-180" vertex="1">
          <mxGeometry width="130" height="40" as="geometry">
            <mxRectangle width="130" height="40" as="alternateBounds" />
          </mxGeometry>
        </mxCell>
        <UserObject label="&lt;font face=&quot;Gochi Hand&quot;&gt;message&lt;/font&gt;" link="&lt;font style=&quot;font-size: 16px;&quot; data-font-src=&quot;https://fonts.googleapis.com/css?family=Gochi+Hand&quot; face=&quot;Gochi Hand&quot;&gt;&lt;b&gt;battery id&lt;/b&gt;&lt;/font&gt;" id="0rQHscwgg67SrnU-Jx7H-182">
          <mxCell style="shape=partialRectangle;html=1;whiteSpace=wrap;connectable=0;strokeColor=inherit;overflow=hidden;fillColor=none;top=0;left=0;bottom=0;right=0;pointerEvents=1;fontSize=19;fontStyle=1" parent="0rQHscwgg67SrnU-Jx7H-180" vertex="1">
            <mxGeometry x="130" width="620" height="40" as="geometry">
              <mxRectangle width="620" height="40" as="alternateBounds" />
            </mxGeometry>
          </mxCell>
        </UserObject>
        <mxCell id="0rQHscwgg67SrnU-Jx7H-185" value="" style="shape=tableRow;horizontal=0;startSize=0;swimlaneHead=0;swimlaneBody=0;strokeColor=inherit;top=0;left=0;bottom=0;right=0;collapsible=0;dropTarget=0;fillColor=none;points=[[0,0.5],[1,0.5]];portConstraint=eastwest;" parent="0rQHscwgg67SrnU-Jx7H-179" vertex="1">
          <mxGeometry y="40" width="750" height="40" as="geometry" />
        </mxCell>
        <mxCell id="0rQHscwgg67SrnU-Jx7H-186" value="" style="shape=partialRectangle;html=1;whiteSpace=wrap;connectable=0;strokeColor=inherit;overflow=hidden;fillColor=none;top=0;left=0;bottom=0;right=0;pointerEvents=1;" parent="0rQHscwgg67SrnU-Jx7H-185" vertex="1">
          <mxGeometry width="130" height="40" as="geometry">
            <mxRectangle width="130" height="40" as="alternateBounds" />
          </mxGeometry>
        </mxCell>
        <mxCell id="0rQHscwgg67SrnU-Jx7H-187" value="" style="shape=partialRectangle;html=1;whiteSpace=wrap;connectable=0;strokeColor=inherit;overflow=hidden;fillColor=none;top=0;left=0;bottom=0;right=0;pointerEvents=1;" parent="0rQHscwgg67SrnU-Jx7H-185" vertex="1">
          <mxGeometry x="130" width="620" height="40" as="geometry">
            <mxRectangle width="620" height="40" as="alternateBounds" />
          </mxGeometry>
        </mxCell>
        <mxCell id="0rQHscwgg67SrnU-Jx7H-190" value="" style="shape=tableRow;horizontal=0;startSize=0;swimlaneHead=0;swimlaneBody=0;strokeColor=inherit;top=0;left=0;bottom=0;right=0;collapsible=0;dropTarget=0;fillColor=none;points=[[0,0.5],[1,0.5]];portConstraint=eastwest;" parent="0rQHscwgg67SrnU-Jx7H-179" vertex="1">
          <mxGeometry y="80" width="750" height="40" as="geometry" />
        </mxCell>
        <mxCell id="0rQHscwgg67SrnU-Jx7H-191" value="" style="shape=partialRectangle;html=1;whiteSpace=wrap;connectable=0;strokeColor=inherit;overflow=hidden;fillColor=none;top=0;left=0;bottom=0;right=0;pointerEvents=1;" parent="0rQHscwgg67SrnU-Jx7H-190" vertex="1">
          <mxGeometry width="130" height="40" as="geometry">
            <mxRectangle width="130" height="40" as="alternateBounds" />
          </mxGeometry>
        </mxCell>
        <mxCell id="0rQHscwgg67SrnU-Jx7H-192" value="" style="shape=partialRectangle;html=1;whiteSpace=wrap;connectable=0;strokeColor=inherit;overflow=hidden;fillColor=none;top=0;left=0;bottom=0;right=0;pointerEvents=1;" parent="0rQHscwgg67SrnU-Jx7H-190" vertex="1">
          <mxGeometry x="130" width="620" height="40" as="geometry">
            <mxRectangle width="620" height="40" as="alternateBounds" />
          </mxGeometry>
        </mxCell>
        <mxCell id="0rQHscwgg67SrnU-Jx7H-195" style="shape=tableRow;horizontal=0;startSize=0;swimlaneHead=0;swimlaneBody=0;strokeColor=inherit;top=0;left=0;bottom=0;right=0;collapsible=0;dropTarget=0;fillColor=none;points=[[0,0.5],[1,0.5]];portConstraint=eastwest;" parent="0rQHscwgg67SrnU-Jx7H-179" vertex="1">
          <mxGeometry y="120" width="750" height="40" as="geometry" />
        </mxCell>
        <mxCell id="0rQHscwgg67SrnU-Jx7H-196" style="shape=partialRectangle;html=1;whiteSpace=wrap;connectable=0;strokeColor=inherit;overflow=hidden;fillColor=none;top=0;left=0;bottom=0;right=0;pointerEvents=1;" parent="0rQHscwgg67SrnU-Jx7H-195" vertex="1">
          <mxGeometry width="130" height="40" as="geometry">
            <mxRectangle width="130" height="40" as="alternateBounds" />
          </mxGeometry>
        </mxCell>
        <mxCell id="0rQHscwgg67SrnU-Jx7H-197" style="shape=partialRectangle;html=1;whiteSpace=wrap;connectable=0;strokeColor=inherit;overflow=hidden;fillColor=none;top=0;left=0;bottom=0;right=0;pointerEvents=1;" parent="0rQHscwgg67SrnU-Jx7H-195" vertex="1">
          <mxGeometry x="130" width="620" height="40" as="geometry">
            <mxRectangle width="620" height="40" as="alternateBounds" />
          </mxGeometry>
        </mxCell>
        <mxCell id="0rQHscwgg67SrnU-Jx7H-200" style="shape=tableRow;horizontal=0;startSize=0;swimlaneHead=0;swimlaneBody=0;strokeColor=inherit;top=0;left=0;bottom=0;right=0;collapsible=0;dropTarget=0;fillColor=none;points=[[0,0.5],[1,0.5]];portConstraint=eastwest;" parent="0rQHscwgg67SrnU-Jx7H-179" vertex="1">
          <mxGeometry y="160" width="750" height="40" as="geometry" />
        </mxCell>
        <mxCell id="0rQHscwgg67SrnU-Jx7H-201" style="shape=partialRectangle;html=1;whiteSpace=wrap;connectable=0;strokeColor=inherit;overflow=hidden;fillColor=none;top=0;left=0;bottom=0;right=0;pointerEvents=1;" parent="0rQHscwgg67SrnU-Jx7H-200" vertex="1">
          <mxGeometry width="130" height="40" as="geometry">
            <mxRectangle width="130" height="40" as="alternateBounds" />
          </mxGeometry>
        </mxCell>
        <mxCell id="0rQHscwgg67SrnU-Jx7H-202" style="shape=partialRectangle;html=1;whiteSpace=wrap;connectable=0;strokeColor=inherit;overflow=hidden;fillColor=none;top=0;left=0;bottom=0;right=0;pointerEvents=1;" parent="0rQHscwgg67SrnU-Jx7H-200" vertex="1">
          <mxGeometry x="130" width="620" height="40" as="geometry">
            <mxRectangle width="620" height="40" as="alternateBounds" />
          </mxGeometry>
        </mxCell>
        <mxCell id="0rQHscwgg67SrnU-Jx7H-205" style="shape=tableRow;horizontal=0;startSize=0;swimlaneHead=0;swimlaneBody=0;strokeColor=inherit;top=0;left=0;bottom=0;right=0;collapsible=0;dropTarget=0;fillColor=none;points=[[0,0.5],[1,0.5]];portConstraint=eastwest;" parent="0rQHscwgg67SrnU-Jx7H-179" vertex="1">
          <mxGeometry y="200" width="750" height="40" as="geometry" />
        </mxCell>
        <mxCell id="0rQHscwgg67SrnU-Jx7H-206" style="shape=partialRectangle;html=1;whiteSpace=wrap;connectable=0;strokeColor=inherit;overflow=hidden;fillColor=none;top=0;left=0;bottom=0;right=0;pointerEvents=1;" parent="0rQHscwgg67SrnU-Jx7H-205" vertex="1">
          <mxGeometry width="130" height="40" as="geometry">
            <mxRectangle width="130" height="40" as="alternateBounds" />
          </mxGeometry>
        </mxCell>
        <mxCell id="0rQHscwgg67SrnU-Jx7H-207" style="shape=partialRectangle;html=1;whiteSpace=wrap;connectable=0;strokeColor=inherit;overflow=hidden;fillColor=none;top=0;left=0;bottom=0;right=0;pointerEvents=1;" parent="0rQHscwgg67SrnU-Jx7H-205" vertex="1">
          <mxGeometry x="130" width="620" height="40" as="geometry">
            <mxRectangle width="620" height="40" as="alternateBounds" />
          </mxGeometry>
        </mxCell>
        <mxCell id="0rQHscwgg67SrnU-Jx7H-210" style="shape=tableRow;horizontal=0;startSize=0;swimlaneHead=0;swimlaneBody=0;strokeColor=inherit;top=0;left=0;bottom=0;right=0;collapsible=0;dropTarget=0;fillColor=none;points=[[0,0.5],[1,0.5]];portConstraint=eastwest;" parent="0rQHscwgg67SrnU-Jx7H-179" vertex="1">
          <mxGeometry y="240" width="750" height="40" as="geometry" />
        </mxCell>
        <mxCell id="0rQHscwgg67SrnU-Jx7H-211" style="shape=partialRectangle;html=1;whiteSpace=wrap;connectable=0;strokeColor=inherit;overflow=hidden;fillColor=none;top=0;left=0;bottom=0;right=0;pointerEvents=1;" parent="0rQHscwgg67SrnU-Jx7H-210" vertex="1">
          <mxGeometry width="130" height="40" as="geometry">
            <mxRectangle width="130" height="40" as="alternateBounds" />
          </mxGeometry>
        </mxCell>
        <mxCell id="0rQHscwgg67SrnU-Jx7H-212" style="shape=partialRectangle;html=1;whiteSpace=wrap;connectable=0;strokeColor=inherit;overflow=hidden;fillColor=none;top=0;left=0;bottom=0;right=0;pointerEvents=1;" parent="0rQHscwgg67SrnU-Jx7H-210" vertex="1">
          <mxGeometry x="130" width="620" height="40" as="geometry">
            <mxRectangle width="620" height="40" as="alternateBounds" />
          </mxGeometry>
        </mxCell>
        <mxCell id="0rQHscwgg67SrnU-Jx7H-215" style="shape=tableRow;horizontal=0;startSize=0;swimlaneHead=0;swimlaneBody=0;strokeColor=inherit;top=0;left=0;bottom=0;right=0;collapsible=0;dropTarget=0;fillColor=none;points=[[0,0.5],[1,0.5]];portConstraint=eastwest;" parent="0rQHscwgg67SrnU-Jx7H-179" vertex="1">
          <mxGeometry y="280" width="750" height="40" as="geometry" />
        </mxCell>
        <mxCell id="0rQHscwgg67SrnU-Jx7H-216" style="shape=partialRectangle;html=1;whiteSpace=wrap;connectable=0;strokeColor=inherit;overflow=hidden;fillColor=none;top=0;left=0;bottom=0;right=0;pointerEvents=1;" parent="0rQHscwgg67SrnU-Jx7H-215" vertex="1">
          <mxGeometry width="130" height="40" as="geometry">
            <mxRectangle width="130" height="40" as="alternateBounds" />
          </mxGeometry>
        </mxCell>
        <mxCell id="0rQHscwgg67SrnU-Jx7H-217" style="shape=partialRectangle;html=1;whiteSpace=wrap;connectable=0;strokeColor=inherit;overflow=hidden;fillColor=none;top=0;left=0;bottom=0;right=0;pointerEvents=1;" parent="0rQHscwgg67SrnU-Jx7H-215" vertex="1">
          <mxGeometry x="130" width="620" height="40" as="geometry">
            <mxRectangle width="620" height="40" as="alternateBounds" />
          </mxGeometry>
        </mxCell>
        <mxCell id="0rQHscwgg67SrnU-Jx7H-220" value="" style="endArrow=none;html=1;rounded=0;sketch=1;curveFitting=1;jiggle=2;strokeColor=light-dark(#000000,#757575);" parent="0rQHscwgg67SrnU-Jx7H-135" edge="1">
          <mxGeometry width="50" height="50" relative="1" as="geometry">
            <mxPoint x="290" y="520" as="sourcePoint" />
            <mxPoint x="1040" y="520" as="targetPoint" />
          </mxGeometry>
        </mxCell>
        <mxCell id="0rQHscwgg67SrnU-Jx7H-221" value="Cleanup" style="text;html=1;align=center;verticalAlign=middle;whiteSpace=wrap;rounded=0;fontFamily=Gochi Hand;fontSource=https%3A%2F%2Ffonts.googleapis.com%2Fcss%3Ffamily%3DGochi%2BHand;fontSize=16;" parent="0rQHscwgg67SrnU-Jx7H-135" vertex="1">
          <mxGeometry x="290" y="530" width="60" height="30" as="geometry" />
        </mxCell>
        <mxCell id="0rQHscwgg67SrnU-Jx7H-222" value="&lt;div&gt;yyyy-mm-dd hh:mm:ss&lt;br&gt;&lt;/div&gt;" style="rounded=1;whiteSpace=wrap;html=1;fontFamily=Gochi Hand;fontSource=https%3A%2F%2Ffonts.googleapis.com%2Fcss%3Ffamily%3DGochi%2BHand;sketch=1;curveFitting=1;jiggle=2;fillColor=#f9f7ed;strokeColor=#36393d;align=left;fontSize=14;fontColor=light-dark(#000000,#595959);" parent="0rQHscwgg67SrnU-Jx7H-135" vertex="1">
          <mxGeometry x="290" y="560" width="750" height="30" as="geometry" />
        </mxCell>
        <mxCell id="0rQHscwgg67SrnU-Jx7H-223" value="Delete Before" style="rounded=1;whiteSpace=wrap;html=1;sketch=1;curveFitting=1;jiggle=2;fillColor=#fa6800;fontColor=#000000;strokeColor=#C73500;fontFamily=Gochi Hand;fontSource=https%3A%2F%2Ffonts.googleapis.com%2Fcss%3Ffamily%3DGochi%2BHand;fontSize=17;" parent="0rQHscwgg67SrnU-Jx7H-135" vertex="1">
          <mxGeometry x="290" y="600" width="750" height="30" as="geometry" />
        </mxCell>
        <mxCell id="0rQHscwgg67SrnU-Jx7H-133" value="BC Calibration" parent="0" visible="0" />
        <mxCell id="0rQHscwgg67SrnU-Jx7H-134" value="" style="endArrow=none;html=1;rounded=0;sketch=1;curveFitting=1;jiggle=2;fillColor=#ffcc99;strokeColor=light-dark(#36393D,#FF8000);" parent="0rQHscwgg67SrnU-Jx7H-133" edge="1">
          <mxGeometry width="50" height="50" relative="1" as="geometry">
            <mxPoint x="270" y="680" as="sourcePoint" />
            <mxPoint x="270" y="110" as="targetPoint" />
          </mxGeometry>
        </mxCell>
        <mxCell id="0rQHscwgg67SrnU-Jx7H-80" value="Batteries" parent="0" visible="0" />
        <mxCell id="0rQHscwgg67SrnU-Jx7H-81" value="Batteries" style="rounded=1;whiteSpace=wrap;html=1;fontFamily=Gochi Hand;fontSource=https%3A%2F%2Ffonts.googleapis.com%2Fcss%3Ffamily%3DGochi%2BHand;sketch=1;curveFitting=1;jiggle=2;fillColor=#bac8d3;strokeColor=#23445d;fontSize=21;labelPosition=center;verticalLabelPosition=middle;align=center;verticalAlign=middle;" parent="0rQHscwgg67SrnU-Jx7H-80" vertex="1">
          <mxGeometry x="290" y="110" width="750" height="50" as="geometry" />
        </mxCell>
        <mxCell id="0rQHscwgg67SrnU-Jx7H-82" value="" style="endArrow=none;html=1;rounded=0;sketch=1;curveFitting=1;jiggle=2;fillColor=#ffcc99;strokeColor=light-dark(#36393D,#FF8000);" parent="0rQHscwgg67SrnU-Jx7H-80" edge="1">
          <mxGeometry width="50" height="50" relative="1" as="geometry">
            <mxPoint x="270" y="680" as="sourcePoint" />
            <mxPoint x="270" y="110" as="targetPoint" />
          </mxGeometry>
        </mxCell>
        <mxCell id="0rQHscwgg67SrnU-Jx7H-83" value="" style="shape=table;startSize=0;container=1;collapsible=0;childLayout=tableLayout;sketch=1;curveFitting=1;jiggle=2;fontFamily=Gochi Hand;fontSource=https%3A%2F%2Ffonts.googleapis.com%2Fcss%3Ffamily%3DGochi%2BHand;fontSize=14;dashed=1;dashPattern=1 1;strokeColor=light-dark(#000000,#2E2E2E);" parent="0rQHscwgg67SrnU-Jx7H-80" vertex="1">
          <mxGeometry x="290" y="190" width="750" height="320" as="geometry" />
        </mxCell>
        <mxCell id="0rQHscwgg67SrnU-Jx7H-84" value="" style="shape=tableRow;horizontal=0;startSize=0;swimlaneHead=0;swimlaneBody=0;strokeColor=inherit;top=0;left=0;bottom=0;right=0;collapsible=0;dropTarget=0;fillColor=none;points=[[0,0.5],[1,0.5]];portConstraint=eastwest;" parent="0rQHscwgg67SrnU-Jx7H-83" vertex="1">
          <mxGeometry width="750" height="40" as="geometry" />
        </mxCell>
        <mxCell id="0rQHscwgg67SrnU-Jx7H-85" value="&lt;font data-font-src=&quot;https://fonts.googleapis.com/css?family=Gochi+Hand&quot; face=&quot;Gochi Hand&quot;&gt;&lt;span&gt;battery id&lt;/span&gt;&lt;/font&gt;" style="shape=partialRectangle;html=1;whiteSpace=wrap;connectable=0;strokeColor=inherit;overflow=hidden;fillColor=none;top=0;left=0;bottom=0;right=0;pointerEvents=1;fontSize=19;fontStyle=1" parent="0rQHscwgg67SrnU-Jx7H-84" vertex="1">
          <mxGeometry width="150" height="40" as="geometry">
            <mxRectangle width="150" height="40" as="alternateBounds" />
          </mxGeometry>
        </mxCell>
        <UserObject label="&lt;font face=&quot;Gochi Hand&quot;&gt;&lt;span&gt;measure date&lt;/span&gt;&lt;/font&gt;" link="&lt;font style=&quot;font-size: 16px;&quot; data-font-src=&quot;https://fonts.googleapis.com/css?family=Gochi+Hand&quot; face=&quot;Gochi Hand&quot;&gt;&lt;b&gt;battery id&lt;/b&gt;&lt;/font&gt;" id="0rQHscwgg67SrnU-Jx7H-86">
          <mxCell style="shape=partialRectangle;html=1;whiteSpace=wrap;connectable=0;strokeColor=inherit;overflow=hidden;fillColor=none;top=0;left=0;bottom=0;right=0;pointerEvents=1;fontSize=19;fontStyle=1" parent="0rQHscwgg67SrnU-Jx7H-84" vertex="1">
            <mxGeometry x="150" width="150" height="40" as="geometry">
              <mxRectangle width="150" height="40" as="alternateBounds" />
            </mxGeometry>
          </mxCell>
        </UserObject>
        <UserObject label="&lt;font face=&quot;Gochi Hand&quot;&gt;&lt;span&gt;capacity&lt;/span&gt;&lt;/font&gt;" link="&lt;font style=&quot;font-size: 16px;&quot; data-font-src=&quot;https://fonts.googleapis.com/css?family=Gochi+Hand&quot; face=&quot;Gochi Hand&quot;&gt;&lt;b&gt;battery id&lt;/b&gt;&lt;/font&gt;" id="0rQHscwgg67SrnU-Jx7H-87">
          <mxCell style="shape=partialRectangle;html=1;whiteSpace=wrap;connectable=0;strokeColor=inherit;overflow=hidden;fillColor=none;top=0;left=0;bottom=0;right=0;pointerEvents=1;fontSize=19;fontStyle=1" parent="0rQHscwgg67SrnU-Jx7H-84" vertex="1">
            <mxGeometry x="300" width="151" height="40" as="geometry">
              <mxRectangle width="151" height="40" as="alternateBounds" />
            </mxGeometry>
          </mxCell>
        </UserObject>
        <UserObject label="&lt;font face=&quot;Gochi Hand&quot;&gt;accuracy&lt;/font&gt;" link="&lt;font style=&quot;font-size: 16px;&quot; data-font-src=&quot;https://fonts.googleapis.com/css?family=Gochi+Hand&quot; face=&quot;Gochi Hand&quot;&gt;&lt;b&gt;battery id&lt;/b&gt;&lt;/font&gt;" id="0rQHscwgg67SrnU-Jx7H-88">
          <mxCell style="shape=partialRectangle;html=1;whiteSpace=wrap;connectable=0;strokeColor=inherit;overflow=hidden;fillColor=none;top=0;left=0;bottom=0;right=0;pointerEvents=1;fontSize=19;fontStyle=1" parent="0rQHscwgg67SrnU-Jx7H-84" vertex="1">
            <mxGeometry x="451" width="149" height="40" as="geometry">
              <mxRectangle width="149" height="40" as="alternateBounds" />
            </mxGeometry>
          </mxCell>
        </UserObject>
        <mxCell id="0rQHscwgg67SrnU-Jx7H-124" value="&lt;font face=&quot;Gochi Hand&quot;&gt;measures&lt;/font&gt;" style="shape=partialRectangle;html=1;whiteSpace=wrap;connectable=0;strokeColor=inherit;overflow=hidden;fillColor=none;top=0;left=0;bottom=0;right=0;pointerEvents=1;fontSize=19;fontStyle=1" parent="0rQHscwgg67SrnU-Jx7H-84" vertex="1">
          <mxGeometry x="600" width="150" height="40" as="geometry">
            <mxRectangle width="150" height="40" as="alternateBounds" />
          </mxGeometry>
        </mxCell>
        <mxCell id="0rQHscwgg67SrnU-Jx7H-89" value="" style="shape=tableRow;horizontal=0;startSize=0;swimlaneHead=0;swimlaneBody=0;strokeColor=inherit;top=0;left=0;bottom=0;right=0;collapsible=0;dropTarget=0;fillColor=none;points=[[0,0.5],[1,0.5]];portConstraint=eastwest;" parent="0rQHscwgg67SrnU-Jx7H-83" vertex="1">
          <mxGeometry y="40" width="750" height="40" as="geometry" />
        </mxCell>
        <mxCell id="0rQHscwgg67SrnU-Jx7H-90" value="" style="shape=partialRectangle;html=1;whiteSpace=wrap;connectable=0;strokeColor=inherit;overflow=hidden;fillColor=none;top=0;left=0;bottom=0;right=0;pointerEvents=1;" parent="0rQHscwgg67SrnU-Jx7H-89" vertex="1">
          <mxGeometry width="150" height="40" as="geometry">
            <mxRectangle width="150" height="40" as="alternateBounds" />
          </mxGeometry>
        </mxCell>
        <mxCell id="0rQHscwgg67SrnU-Jx7H-91" value="" style="shape=partialRectangle;html=1;whiteSpace=wrap;connectable=0;strokeColor=inherit;overflow=hidden;fillColor=none;top=0;left=0;bottom=0;right=0;pointerEvents=1;" parent="0rQHscwgg67SrnU-Jx7H-89" vertex="1">
          <mxGeometry x="150" width="150" height="40" as="geometry">
            <mxRectangle width="150" height="40" as="alternateBounds" />
          </mxGeometry>
        </mxCell>
        <mxCell id="0rQHscwgg67SrnU-Jx7H-92" value="" style="shape=partialRectangle;html=1;whiteSpace=wrap;connectable=0;strokeColor=inherit;overflow=hidden;fillColor=none;top=0;left=0;bottom=0;right=0;pointerEvents=1;" parent="0rQHscwgg67SrnU-Jx7H-89" vertex="1">
          <mxGeometry x="300" width="151" height="40" as="geometry">
            <mxRectangle width="151" height="40" as="alternateBounds" />
          </mxGeometry>
        </mxCell>
        <mxCell id="0rQHscwgg67SrnU-Jx7H-93" value="" style="shape=partialRectangle;html=1;whiteSpace=wrap;connectable=0;strokeColor=inherit;overflow=hidden;fillColor=none;top=0;left=0;bottom=0;right=0;pointerEvents=1;" parent="0rQHscwgg67SrnU-Jx7H-89" vertex="1">
          <mxGeometry x="451" width="149" height="40" as="geometry">
            <mxRectangle width="149" height="40" as="alternateBounds" />
          </mxGeometry>
        </mxCell>
        <mxCell id="0rQHscwgg67SrnU-Jx7H-125" style="shape=partialRectangle;html=1;whiteSpace=wrap;connectable=0;strokeColor=inherit;overflow=hidden;fillColor=none;top=0;left=0;bottom=0;right=0;pointerEvents=1;" parent="0rQHscwgg67SrnU-Jx7H-89" vertex="1">
          <mxGeometry x="600" width="150" height="40" as="geometry">
            <mxRectangle width="150" height="40" as="alternateBounds" />
          </mxGeometry>
        </mxCell>
        <mxCell id="0rQHscwgg67SrnU-Jx7H-94" value="" style="shape=tableRow;horizontal=0;startSize=0;swimlaneHead=0;swimlaneBody=0;strokeColor=inherit;top=0;left=0;bottom=0;right=0;collapsible=0;dropTarget=0;fillColor=none;points=[[0,0.5],[1,0.5]];portConstraint=eastwest;" parent="0rQHscwgg67SrnU-Jx7H-83" vertex="1">
          <mxGeometry y="80" width="750" height="40" as="geometry" />
        </mxCell>
        <mxCell id="0rQHscwgg67SrnU-Jx7H-95" value="" style="shape=partialRectangle;html=1;whiteSpace=wrap;connectable=0;strokeColor=inherit;overflow=hidden;fillColor=none;top=0;left=0;bottom=0;right=0;pointerEvents=1;" parent="0rQHscwgg67SrnU-Jx7H-94" vertex="1">
          <mxGeometry width="150" height="40" as="geometry">
            <mxRectangle width="150" height="40" as="alternateBounds" />
          </mxGeometry>
        </mxCell>
        <mxCell id="0rQHscwgg67SrnU-Jx7H-96" value="" style="shape=partialRectangle;html=1;whiteSpace=wrap;connectable=0;strokeColor=inherit;overflow=hidden;fillColor=none;top=0;left=0;bottom=0;right=0;pointerEvents=1;" parent="0rQHscwgg67SrnU-Jx7H-94" vertex="1">
          <mxGeometry x="150" width="150" height="40" as="geometry">
            <mxRectangle width="150" height="40" as="alternateBounds" />
          </mxGeometry>
        </mxCell>
        <mxCell id="0rQHscwgg67SrnU-Jx7H-97" value="" style="shape=partialRectangle;html=1;whiteSpace=wrap;connectable=0;strokeColor=inherit;overflow=hidden;fillColor=none;top=0;left=0;bottom=0;right=0;pointerEvents=1;" parent="0rQHscwgg67SrnU-Jx7H-94" vertex="1">
          <mxGeometry x="300" width="151" height="40" as="geometry">
            <mxRectangle width="151" height="40" as="alternateBounds" />
          </mxGeometry>
        </mxCell>
        <mxCell id="0rQHscwgg67SrnU-Jx7H-98" value="" style="shape=partialRectangle;html=1;whiteSpace=wrap;connectable=0;strokeColor=inherit;overflow=hidden;fillColor=none;top=0;left=0;bottom=0;right=0;pointerEvents=1;" parent="0rQHscwgg67SrnU-Jx7H-94" vertex="1">
          <mxGeometry x="451" width="149" height="40" as="geometry">
            <mxRectangle width="149" height="40" as="alternateBounds" />
          </mxGeometry>
        </mxCell>
        <mxCell id="0rQHscwgg67SrnU-Jx7H-126" style="shape=partialRectangle;html=1;whiteSpace=wrap;connectable=0;strokeColor=inherit;overflow=hidden;fillColor=none;top=0;left=0;bottom=0;right=0;pointerEvents=1;" parent="0rQHscwgg67SrnU-Jx7H-94" vertex="1">
          <mxGeometry x="600" width="150" height="40" as="geometry">
            <mxRectangle width="150" height="40" as="alternateBounds" />
          </mxGeometry>
        </mxCell>
        <mxCell id="0rQHscwgg67SrnU-Jx7H-99" style="shape=tableRow;horizontal=0;startSize=0;swimlaneHead=0;swimlaneBody=0;strokeColor=inherit;top=0;left=0;bottom=0;right=0;collapsible=0;dropTarget=0;fillColor=none;points=[[0,0.5],[1,0.5]];portConstraint=eastwest;" parent="0rQHscwgg67SrnU-Jx7H-83" vertex="1">
          <mxGeometry y="120" width="750" height="40" as="geometry" />
        </mxCell>
        <mxCell id="0rQHscwgg67SrnU-Jx7H-100" style="shape=partialRectangle;html=1;whiteSpace=wrap;connectable=0;strokeColor=inherit;overflow=hidden;fillColor=none;top=0;left=0;bottom=0;right=0;pointerEvents=1;" parent="0rQHscwgg67SrnU-Jx7H-99" vertex="1">
          <mxGeometry width="150" height="40" as="geometry">
            <mxRectangle width="150" height="40" as="alternateBounds" />
          </mxGeometry>
        </mxCell>
        <mxCell id="0rQHscwgg67SrnU-Jx7H-101" style="shape=partialRectangle;html=1;whiteSpace=wrap;connectable=0;strokeColor=inherit;overflow=hidden;fillColor=none;top=0;left=0;bottom=0;right=0;pointerEvents=1;" parent="0rQHscwgg67SrnU-Jx7H-99" vertex="1">
          <mxGeometry x="150" width="150" height="40" as="geometry">
            <mxRectangle width="150" height="40" as="alternateBounds" />
          </mxGeometry>
        </mxCell>
        <mxCell id="0rQHscwgg67SrnU-Jx7H-102" style="shape=partialRectangle;html=1;whiteSpace=wrap;connectable=0;strokeColor=inherit;overflow=hidden;fillColor=none;top=0;left=0;bottom=0;right=0;pointerEvents=1;" parent="0rQHscwgg67SrnU-Jx7H-99" vertex="1">
          <mxGeometry x="300" width="151" height="40" as="geometry">
            <mxRectangle width="151" height="40" as="alternateBounds" />
          </mxGeometry>
        </mxCell>
        <mxCell id="0rQHscwgg67SrnU-Jx7H-103" style="shape=partialRectangle;html=1;whiteSpace=wrap;connectable=0;strokeColor=inherit;overflow=hidden;fillColor=none;top=0;left=0;bottom=0;right=0;pointerEvents=1;" parent="0rQHscwgg67SrnU-Jx7H-99" vertex="1">
          <mxGeometry x="451" width="149" height="40" as="geometry">
            <mxRectangle width="149" height="40" as="alternateBounds" />
          </mxGeometry>
        </mxCell>
        <mxCell id="0rQHscwgg67SrnU-Jx7H-127" style="shape=partialRectangle;html=1;whiteSpace=wrap;connectable=0;strokeColor=inherit;overflow=hidden;fillColor=none;top=0;left=0;bottom=0;right=0;pointerEvents=1;" parent="0rQHscwgg67SrnU-Jx7H-99" vertex="1">
          <mxGeometry x="600" width="150" height="40" as="geometry">
            <mxRectangle width="150" height="40" as="alternateBounds" />
          </mxGeometry>
        </mxCell>
        <mxCell id="0rQHscwgg67SrnU-Jx7H-104" style="shape=tableRow;horizontal=0;startSize=0;swimlaneHead=0;swimlaneBody=0;strokeColor=inherit;top=0;left=0;bottom=0;right=0;collapsible=0;dropTarget=0;fillColor=none;points=[[0,0.5],[1,0.5]];portConstraint=eastwest;" parent="0rQHscwgg67SrnU-Jx7H-83" vertex="1">
          <mxGeometry y="160" width="750" height="40" as="geometry" />
        </mxCell>
        <mxCell id="0rQHscwgg67SrnU-Jx7H-105" style="shape=partialRectangle;html=1;whiteSpace=wrap;connectable=0;strokeColor=inherit;overflow=hidden;fillColor=none;top=0;left=0;bottom=0;right=0;pointerEvents=1;" parent="0rQHscwgg67SrnU-Jx7H-104" vertex="1">
          <mxGeometry width="150" height="40" as="geometry">
            <mxRectangle width="150" height="40" as="alternateBounds" />
          </mxGeometry>
        </mxCell>
        <mxCell id="0rQHscwgg67SrnU-Jx7H-106" style="shape=partialRectangle;html=1;whiteSpace=wrap;connectable=0;strokeColor=inherit;overflow=hidden;fillColor=none;top=0;left=0;bottom=0;right=0;pointerEvents=1;" parent="0rQHscwgg67SrnU-Jx7H-104" vertex="1">
          <mxGeometry x="150" width="150" height="40" as="geometry">
            <mxRectangle width="150" height="40" as="alternateBounds" />
          </mxGeometry>
        </mxCell>
        <mxCell id="0rQHscwgg67SrnU-Jx7H-107" style="shape=partialRectangle;html=1;whiteSpace=wrap;connectable=0;strokeColor=inherit;overflow=hidden;fillColor=none;top=0;left=0;bottom=0;right=0;pointerEvents=1;" parent="0rQHscwgg67SrnU-Jx7H-104" vertex="1">
          <mxGeometry x="300" width="151" height="40" as="geometry">
            <mxRectangle width="151" height="40" as="alternateBounds" />
          </mxGeometry>
        </mxCell>
        <mxCell id="0rQHscwgg67SrnU-Jx7H-108" style="shape=partialRectangle;html=1;whiteSpace=wrap;connectable=0;strokeColor=inherit;overflow=hidden;fillColor=none;top=0;left=0;bottom=0;right=0;pointerEvents=1;" parent="0rQHscwgg67SrnU-Jx7H-104" vertex="1">
          <mxGeometry x="451" width="149" height="40" as="geometry">
            <mxRectangle width="149" height="40" as="alternateBounds" />
          </mxGeometry>
        </mxCell>
        <mxCell id="0rQHscwgg67SrnU-Jx7H-128" style="shape=partialRectangle;html=1;whiteSpace=wrap;connectable=0;strokeColor=inherit;overflow=hidden;fillColor=none;top=0;left=0;bottom=0;right=0;pointerEvents=1;" parent="0rQHscwgg67SrnU-Jx7H-104" vertex="1">
          <mxGeometry x="600" width="150" height="40" as="geometry">
            <mxRectangle width="150" height="40" as="alternateBounds" />
          </mxGeometry>
        </mxCell>
        <mxCell id="0rQHscwgg67SrnU-Jx7H-109" style="shape=tableRow;horizontal=0;startSize=0;swimlaneHead=0;swimlaneBody=0;strokeColor=inherit;top=0;left=0;bottom=0;right=0;collapsible=0;dropTarget=0;fillColor=none;points=[[0,0.5],[1,0.5]];portConstraint=eastwest;" parent="0rQHscwgg67SrnU-Jx7H-83" vertex="1">
          <mxGeometry y="200" width="750" height="40" as="geometry" />
        </mxCell>
        <mxCell id="0rQHscwgg67SrnU-Jx7H-110" style="shape=partialRectangle;html=1;whiteSpace=wrap;connectable=0;strokeColor=inherit;overflow=hidden;fillColor=none;top=0;left=0;bottom=0;right=0;pointerEvents=1;" parent="0rQHscwgg67SrnU-Jx7H-109" vertex="1">
          <mxGeometry width="150" height="40" as="geometry">
            <mxRectangle width="150" height="40" as="alternateBounds" />
          </mxGeometry>
        </mxCell>
        <mxCell id="0rQHscwgg67SrnU-Jx7H-111" style="shape=partialRectangle;html=1;whiteSpace=wrap;connectable=0;strokeColor=inherit;overflow=hidden;fillColor=none;top=0;left=0;bottom=0;right=0;pointerEvents=1;" parent="0rQHscwgg67SrnU-Jx7H-109" vertex="1">
          <mxGeometry x="150" width="150" height="40" as="geometry">
            <mxRectangle width="150" height="40" as="alternateBounds" />
          </mxGeometry>
        </mxCell>
        <mxCell id="0rQHscwgg67SrnU-Jx7H-112" style="shape=partialRectangle;html=1;whiteSpace=wrap;connectable=0;strokeColor=inherit;overflow=hidden;fillColor=none;top=0;left=0;bottom=0;right=0;pointerEvents=1;" parent="0rQHscwgg67SrnU-Jx7H-109" vertex="1">
          <mxGeometry x="300" width="151" height="40" as="geometry">
            <mxRectangle width="151" height="40" as="alternateBounds" />
          </mxGeometry>
        </mxCell>
        <mxCell id="0rQHscwgg67SrnU-Jx7H-113" style="shape=partialRectangle;html=1;whiteSpace=wrap;connectable=0;strokeColor=inherit;overflow=hidden;fillColor=none;top=0;left=0;bottom=0;right=0;pointerEvents=1;" parent="0rQHscwgg67SrnU-Jx7H-109" vertex="1">
          <mxGeometry x="451" width="149" height="40" as="geometry">
            <mxRectangle width="149" height="40" as="alternateBounds" />
          </mxGeometry>
        </mxCell>
        <mxCell id="0rQHscwgg67SrnU-Jx7H-129" style="shape=partialRectangle;html=1;whiteSpace=wrap;connectable=0;strokeColor=inherit;overflow=hidden;fillColor=none;top=0;left=0;bottom=0;right=0;pointerEvents=1;" parent="0rQHscwgg67SrnU-Jx7H-109" vertex="1">
          <mxGeometry x="600" width="150" height="40" as="geometry">
            <mxRectangle width="150" height="40" as="alternateBounds" />
          </mxGeometry>
        </mxCell>
        <mxCell id="0rQHscwgg67SrnU-Jx7H-114" style="shape=tableRow;horizontal=0;startSize=0;swimlaneHead=0;swimlaneBody=0;strokeColor=inherit;top=0;left=0;bottom=0;right=0;collapsible=0;dropTarget=0;fillColor=none;points=[[0,0.5],[1,0.5]];portConstraint=eastwest;" parent="0rQHscwgg67SrnU-Jx7H-83" vertex="1">
          <mxGeometry y="240" width="750" height="40" as="geometry" />
        </mxCell>
        <mxCell id="0rQHscwgg67SrnU-Jx7H-115" style="shape=partialRectangle;html=1;whiteSpace=wrap;connectable=0;strokeColor=inherit;overflow=hidden;fillColor=none;top=0;left=0;bottom=0;right=0;pointerEvents=1;" parent="0rQHscwgg67SrnU-Jx7H-114" vertex="1">
          <mxGeometry width="150" height="40" as="geometry">
            <mxRectangle width="150" height="40" as="alternateBounds" />
          </mxGeometry>
        </mxCell>
        <mxCell id="0rQHscwgg67SrnU-Jx7H-116" style="shape=partialRectangle;html=1;whiteSpace=wrap;connectable=0;strokeColor=inherit;overflow=hidden;fillColor=none;top=0;left=0;bottom=0;right=0;pointerEvents=1;" parent="0rQHscwgg67SrnU-Jx7H-114" vertex="1">
          <mxGeometry x="150" width="150" height="40" as="geometry">
            <mxRectangle width="150" height="40" as="alternateBounds" />
          </mxGeometry>
        </mxCell>
        <mxCell id="0rQHscwgg67SrnU-Jx7H-117" style="shape=partialRectangle;html=1;whiteSpace=wrap;connectable=0;strokeColor=inherit;overflow=hidden;fillColor=none;top=0;left=0;bottom=0;right=0;pointerEvents=1;" parent="0rQHscwgg67SrnU-Jx7H-114" vertex="1">
          <mxGeometry x="300" width="151" height="40" as="geometry">
            <mxRectangle width="151" height="40" as="alternateBounds" />
          </mxGeometry>
        </mxCell>
        <mxCell id="0rQHscwgg67SrnU-Jx7H-118" style="shape=partialRectangle;html=1;whiteSpace=wrap;connectable=0;strokeColor=inherit;overflow=hidden;fillColor=none;top=0;left=0;bottom=0;right=0;pointerEvents=1;" parent="0rQHscwgg67SrnU-Jx7H-114" vertex="1">
          <mxGeometry x="451" width="149" height="40" as="geometry">
            <mxRectangle width="149" height="40" as="alternateBounds" />
          </mxGeometry>
        </mxCell>
        <mxCell id="0rQHscwgg67SrnU-Jx7H-130" style="shape=partialRectangle;html=1;whiteSpace=wrap;connectable=0;strokeColor=inherit;overflow=hidden;fillColor=none;top=0;left=0;bottom=0;right=0;pointerEvents=1;" parent="0rQHscwgg67SrnU-Jx7H-114" vertex="1">
          <mxGeometry x="600" width="150" height="40" as="geometry">
            <mxRectangle width="150" height="40" as="alternateBounds" />
          </mxGeometry>
        </mxCell>
        <mxCell id="0rQHscwgg67SrnU-Jx7H-119" style="shape=tableRow;horizontal=0;startSize=0;swimlaneHead=0;swimlaneBody=0;strokeColor=inherit;top=0;left=0;bottom=0;right=0;collapsible=0;dropTarget=0;fillColor=none;points=[[0,0.5],[1,0.5]];portConstraint=eastwest;" parent="0rQHscwgg67SrnU-Jx7H-83" vertex="1">
          <mxGeometry y="280" width="750" height="40" as="geometry" />
        </mxCell>
        <mxCell id="0rQHscwgg67SrnU-Jx7H-120" style="shape=partialRectangle;html=1;whiteSpace=wrap;connectable=0;strokeColor=inherit;overflow=hidden;fillColor=none;top=0;left=0;bottom=0;right=0;pointerEvents=1;" parent="0rQHscwgg67SrnU-Jx7H-119" vertex="1">
          <mxGeometry width="150" height="40" as="geometry">
            <mxRectangle width="150" height="40" as="alternateBounds" />
          </mxGeometry>
        </mxCell>
        <mxCell id="0rQHscwgg67SrnU-Jx7H-121" style="shape=partialRectangle;html=1;whiteSpace=wrap;connectable=0;strokeColor=inherit;overflow=hidden;fillColor=none;top=0;left=0;bottom=0;right=0;pointerEvents=1;" parent="0rQHscwgg67SrnU-Jx7H-119" vertex="1">
          <mxGeometry x="150" width="150" height="40" as="geometry">
            <mxRectangle width="150" height="40" as="alternateBounds" />
          </mxGeometry>
        </mxCell>
        <mxCell id="0rQHscwgg67SrnU-Jx7H-122" style="shape=partialRectangle;html=1;whiteSpace=wrap;connectable=0;strokeColor=inherit;overflow=hidden;fillColor=none;top=0;left=0;bottom=0;right=0;pointerEvents=1;" parent="0rQHscwgg67SrnU-Jx7H-119" vertex="1">
          <mxGeometry x="300" width="151" height="40" as="geometry">
            <mxRectangle width="151" height="40" as="alternateBounds" />
          </mxGeometry>
        </mxCell>
        <mxCell id="0rQHscwgg67SrnU-Jx7H-123" style="shape=partialRectangle;html=1;whiteSpace=wrap;connectable=0;strokeColor=inherit;overflow=hidden;fillColor=none;top=0;left=0;bottom=0;right=0;pointerEvents=1;" parent="0rQHscwgg67SrnU-Jx7H-119" vertex="1">
          <mxGeometry x="451" width="149" height="40" as="geometry">
            <mxRectangle width="149" height="40" as="alternateBounds" />
          </mxGeometry>
        </mxCell>
        <mxCell id="0rQHscwgg67SrnU-Jx7H-131" style="shape=partialRectangle;html=1;whiteSpace=wrap;connectable=0;strokeColor=inherit;overflow=hidden;fillColor=none;top=0;left=0;bottom=0;right=0;pointerEvents=1;" parent="0rQHscwgg67SrnU-Jx7H-119" vertex="1">
          <mxGeometry x="600" width="150" height="40" as="geometry">
            <mxRectangle width="150" height="40" as="alternateBounds" />
          </mxGeometry>
        </mxCell>
        <mxCell id="0rQHscwgg67SrnU-Jx7H-225" value="State" parent="0" />
        <mxCell id="0rQHscwgg67SrnU-Jx7H-269" value="Active" style="rounded=1;whiteSpace=wrap;html=1;fontFamily=Gochi Hand;fontSource=https%3A%2F%2Ffonts.googleapis.com%2Fcss%3Ffamily%3DGochi%2BHand;sketch=1;curveFitting=1;jiggle=2;fillColor=#bac8d3;strokeColor=#23445d;fontSize=21;labelPosition=center;verticalLabelPosition=middle;align=center;verticalAlign=middle;" parent="0rQHscwgg67SrnU-Jx7H-225" vertex="1">
          <mxGeometry x="290" y="160" width="750" height="50" as="geometry" />
        </mxCell>
        <mxCell id="0rQHscwgg67SrnU-Jx7H-270" value="" style="endArrow=none;html=1;rounded=0;sketch=1;curveFitting=1;jiggle=2;fillColor=#ffcc99;strokeColor=light-dark(#36393D,#FF8000);" parent="0rQHscwgg67SrnU-Jx7H-225" edge="1">
          <mxGeometry width="50" height="50" relative="1" as="geometry">
            <mxPoint x="270" y="680" as="sourcePoint" />
            <mxPoint x="270" y="110" as="targetPoint" />
          </mxGeometry>
        </mxCell>
        <mxCell id="0rQHscwgg67SrnU-Jx7H-271" value="" style="shape=table;startSize=0;container=1;collapsible=0;childLayout=tableLayout;sketch=1;curveFitting=1;jiggle=2;fontFamily=Gochi Hand;fontSource=https%3A%2F%2Ffonts.googleapis.com%2Fcss%3Ffamily%3DGochi%2BHand;fontSize=14;dashed=1;dashPattern=1 1;strokeColor=light-dark(#000000,#2E2E2E);" parent="0rQHscwgg67SrnU-Jx7H-225" vertex="1">
          <mxGeometry x="290" y="230" width="750" height="160" as="geometry" />
        </mxCell>
        <mxCell id="0rQHscwgg67SrnU-Jx7H-272" value="" style="shape=tableRow;horizontal=0;startSize=0;swimlaneHead=0;swimlaneBody=0;strokeColor=inherit;top=0;left=0;bottom=0;right=0;collapsible=0;dropTarget=0;fillColor=none;points=[[0,0.5],[1,0.5]];portConstraint=eastwest;" parent="0rQHscwgg67SrnU-Jx7H-271" vertex="1">
          <mxGeometry width="750" height="40" as="geometry" />
        </mxCell>
        <mxCell id="0rQHscwgg67SrnU-Jx7H-273" value="&lt;font face=&quot;Gochi Hand&quot;&gt;date&lt;/font&gt;" style="shape=partialRectangle;html=1;whiteSpace=wrap;connectable=0;strokeColor=inherit;overflow=hidden;fillColor=none;top=0;left=0;bottom=0;right=0;pointerEvents=1;fontSize=19;fontStyle=1" parent="0rQHscwgg67SrnU-Jx7H-272" vertex="1">
          <mxGeometry width="68" height="40" as="geometry">
            <mxRectangle width="68" height="40" as="alternateBounds" />
          </mxGeometry>
        </mxCell>
        <UserObject label="&lt;font face=&quot;Gochi Hand&quot;&gt;bc&lt;/font&gt;" link="&lt;font style=&quot;font-size: 16px;&quot; data-font-src=&quot;https://fonts.googleapis.com/css?family=Gochi+Hand&quot; face=&quot;Gochi Hand&quot;&gt;&lt;b&gt;battery id&lt;/b&gt;&lt;/font&gt;" id="0rQHscwgg67SrnU-Jx7H-274">
          <mxCell style="shape=partialRectangle;html=1;whiteSpace=wrap;connectable=0;strokeColor=inherit;overflow=hidden;fillColor=none;top=0;left=0;bottom=0;right=0;pointerEvents=1;fontSize=19;fontStyle=1" parent="0rQHscwgg67SrnU-Jx7H-272" vertex="1">
            <mxGeometry x="68" width="68" height="40" as="geometry">
              <mxRectangle width="68" height="40" as="alternateBounds" />
            </mxGeometry>
          </mxCell>
        </UserObject>
        <UserObject label="&lt;font face=&quot;Gochi Hand&quot;&gt;state&lt;/font&gt;" link="&lt;font style=&quot;font-size: 16px;&quot; data-font-src=&quot;https://fonts.googleapis.com/css?family=Gochi+Hand&quot; face=&quot;Gochi Hand&quot;&gt;&lt;b&gt;battery id&lt;/b&gt;&lt;/font&gt;" id="0rQHscwgg67SrnU-Jx7H-275">
          <mxCell style="shape=partialRectangle;html=1;whiteSpace=wrap;connectable=0;strokeColor=inherit;overflow=hidden;fillColor=none;top=0;left=0;bottom=0;right=0;pointerEvents=1;fontSize=19;fontStyle=1" parent="0rQHscwgg67SrnU-Jx7H-272" vertex="1">
            <mxGeometry x="136" width="69" height="40" as="geometry">
              <mxRectangle width="69" height="40" as="alternateBounds" />
            </mxGeometry>
          </mxCell>
        </UserObject>
        <UserObject label="&lt;font face=&quot;Gochi Hand&quot;&gt;bat_id&lt;/font&gt;" link="&lt;font style=&quot;font-size: 16px;&quot; data-font-src=&quot;https://fonts.googleapis.com/css?family=Gochi+Hand&quot; face=&quot;Gochi Hand&quot;&gt;&lt;b&gt;battery id&lt;/b&gt;&lt;/font&gt;" id="0rQHscwgg67SrnU-Jx7H-276">
          <mxCell style="shape=partialRectangle;html=1;whiteSpace=wrap;connectable=0;strokeColor=inherit;overflow=hidden;fillColor=none;top=0;left=0;bottom=0;right=0;pointerEvents=1;fontSize=19;fontStyle=1" parent="0rQHscwgg67SrnU-Jx7H-272" vertex="1">
            <mxGeometry x="205" width="69" height="40" as="geometry">
              <mxRectangle width="69" height="40" as="alternateBounds" />
            </mxGeometry>
          </mxCell>
        </UserObject>
        <mxCell id="0rQHscwgg67SrnU-Jx7H-340" value="&lt;font face=&quot;Gochi Hand&quot;&gt;voltage&lt;/font&gt;" style="shape=partialRectangle;html=1;whiteSpace=wrap;connectable=0;strokeColor=inherit;overflow=hidden;fillColor=none;top=0;left=0;bottom=0;right=0;pointerEvents=1;fontSize=19;fontStyle=1" parent="0rQHscwgg67SrnU-Jx7H-272" vertex="1">
          <mxGeometry x="274" width="68" height="40" as="geometry">
            <mxRectangle width="68" height="40" as="alternateBounds" />
          </mxGeometry>
        </mxCell>
        <mxCell id="0rQHscwgg67SrnU-Jx7H-336" value="&lt;font face=&quot;Gochi Hand&quot;&gt;current&lt;/font&gt;" style="shape=partialRectangle;html=1;whiteSpace=wrap;connectable=0;strokeColor=inherit;overflow=hidden;fillColor=none;top=0;left=0;bottom=0;right=0;pointerEvents=1;fontSize=19;fontStyle=1" parent="0rQHscwgg67SrnU-Jx7H-272" vertex="1">
          <mxGeometry x="342" width="67" height="40" as="geometry">
            <mxRectangle width="67" height="40" as="alternateBounds" />
          </mxGeometry>
        </mxCell>
        <mxCell id="0rQHscwgg67SrnU-Jx7H-332" value="&lt;font face=&quot;Gochi Hand&quot;&gt;mah&lt;/font&gt;" style="shape=partialRectangle;html=1;whiteSpace=wrap;connectable=0;strokeColor=inherit;overflow=hidden;fillColor=none;top=0;left=0;bottom=0;right=0;pointerEvents=1;fontSize=19;fontStyle=1" parent="0rQHscwgg67SrnU-Jx7H-272" vertex="1">
          <mxGeometry x="409" width="68" height="40" as="geometry">
            <mxRectangle width="68" height="40" as="alternateBounds" />
          </mxGeometry>
        </mxCell>
        <mxCell id="0rQHscwgg67SrnU-Jx7H-328" value="&lt;font face=&quot;Gochi Hand&quot;&gt;period&lt;/font&gt;" style="shape=partialRectangle;html=1;whiteSpace=wrap;connectable=0;strokeColor=inherit;overflow=hidden;fillColor=none;top=0;left=0;bottom=0;right=0;pointerEvents=1;fontSize=19;fontStyle=1" parent="0rQHscwgg67SrnU-Jx7H-272" vertex="1">
          <mxGeometry x="477" width="68" height="40" as="geometry">
            <mxRectangle width="68" height="40" as="alternateBounds" />
          </mxGeometry>
        </mxCell>
        <mxCell id="0rQHscwgg67SrnU-Jx7H-324" value="&lt;font face=&quot;Gochi Hand&quot;&gt;soc st&lt;/font&gt;" style="shape=partialRectangle;html=1;whiteSpace=wrap;connectable=0;strokeColor=inherit;overflow=hidden;fillColor=none;top=0;left=0;bottom=0;right=0;pointerEvents=1;fontSize=19;fontStyle=1" parent="0rQHscwgg67SrnU-Jx7H-272" vertex="1">
          <mxGeometry x="545" width="69" height="40" as="geometry">
            <mxRectangle width="69" height="40" as="alternateBounds" />
          </mxGeometry>
        </mxCell>
        <mxCell id="0rQHscwgg67SrnU-Jx7H-320" value="&lt;font face=&quot;Gochi Hand&quot;&gt;soc_uid&lt;/font&gt;" style="shape=partialRectangle;html=1;whiteSpace=wrap;connectable=0;strokeColor=inherit;overflow=hidden;fillColor=none;top=0;left=0;bottom=0;right=0;pointerEvents=1;fontSize=19;fontStyle=1" parent="0rQHscwgg67SrnU-Jx7H-272" vertex="1">
          <mxGeometry x="614" width="68" height="40" as="geometry">
            <mxRectangle width="68" height="40" as="alternateBounds" />
          </mxGeometry>
        </mxCell>
        <mxCell id="0rQHscwgg67SrnU-Jx7H-344" value="&lt;font face=&quot;Gochi Hand&quot;&gt;cycle&lt;/font&gt;" style="shape=partialRectangle;html=1;whiteSpace=wrap;connectable=0;strokeColor=inherit;overflow=hidden;fillColor=none;top=0;left=0;bottom=0;right=0;pointerEvents=1;fontSize=19;fontStyle=1" parent="0rQHscwgg67SrnU-Jx7H-272" vertex="1">
          <mxGeometry x="682" width="68" height="40" as="geometry">
            <mxRectangle width="68" height="40" as="alternateBounds" />
          </mxGeometry>
        </mxCell>
        <mxCell id="0rQHscwgg67SrnU-Jx7H-277" value="" style="shape=tableRow;horizontal=0;startSize=0;swimlaneHead=0;swimlaneBody=0;strokeColor=inherit;top=0;left=0;bottom=0;right=0;collapsible=0;dropTarget=0;fillColor=none;points=[[0,0.5],[1,0.5]];portConstraint=eastwest;" parent="0rQHscwgg67SrnU-Jx7H-271" vertex="1">
          <mxGeometry y="40" width="750" height="40" as="geometry" />
        </mxCell>
        <mxCell id="0rQHscwgg67SrnU-Jx7H-278" value="" style="shape=partialRectangle;html=1;whiteSpace=wrap;connectable=0;strokeColor=inherit;overflow=hidden;fillColor=none;top=0;left=0;bottom=0;right=0;pointerEvents=1;" parent="0rQHscwgg67SrnU-Jx7H-277" vertex="1">
          <mxGeometry width="68" height="40" as="geometry">
            <mxRectangle width="68" height="40" as="alternateBounds" />
          </mxGeometry>
        </mxCell>
        <mxCell id="0rQHscwgg67SrnU-Jx7H-279" value="" style="shape=partialRectangle;html=1;whiteSpace=wrap;connectable=0;strokeColor=inherit;overflow=hidden;fillColor=none;top=0;left=0;bottom=0;right=0;pointerEvents=1;" parent="0rQHscwgg67SrnU-Jx7H-277" vertex="1">
          <mxGeometry x="68" width="68" height="40" as="geometry">
            <mxRectangle width="68" height="40" as="alternateBounds" />
          </mxGeometry>
        </mxCell>
        <mxCell id="0rQHscwgg67SrnU-Jx7H-280" value="" style="shape=partialRectangle;html=1;whiteSpace=wrap;connectable=0;strokeColor=inherit;overflow=hidden;fillColor=none;top=0;left=0;bottom=0;right=0;pointerEvents=1;" parent="0rQHscwgg67SrnU-Jx7H-277" vertex="1">
          <mxGeometry x="136" width="69" height="40" as="geometry">
            <mxRectangle width="69" height="40" as="alternateBounds" />
          </mxGeometry>
        </mxCell>
        <mxCell id="0rQHscwgg67SrnU-Jx7H-281" value="" style="shape=partialRectangle;html=1;whiteSpace=wrap;connectable=0;strokeColor=inherit;overflow=hidden;fillColor=none;top=0;left=0;bottom=0;right=0;pointerEvents=1;" parent="0rQHscwgg67SrnU-Jx7H-277" vertex="1">
          <mxGeometry x="205" width="69" height="40" as="geometry">
            <mxRectangle width="69" height="40" as="alternateBounds" />
          </mxGeometry>
        </mxCell>
        <mxCell id="0rQHscwgg67SrnU-Jx7H-341" style="shape=partialRectangle;html=1;whiteSpace=wrap;connectable=0;strokeColor=inherit;overflow=hidden;fillColor=none;top=0;left=0;bottom=0;right=0;pointerEvents=1;" parent="0rQHscwgg67SrnU-Jx7H-277" vertex="1">
          <mxGeometry x="274" width="68" height="40" as="geometry">
            <mxRectangle width="68" height="40" as="alternateBounds" />
          </mxGeometry>
        </mxCell>
        <mxCell id="0rQHscwgg67SrnU-Jx7H-337" style="shape=partialRectangle;html=1;whiteSpace=wrap;connectable=0;strokeColor=inherit;overflow=hidden;fillColor=none;top=0;left=0;bottom=0;right=0;pointerEvents=1;" parent="0rQHscwgg67SrnU-Jx7H-277" vertex="1">
          <mxGeometry x="342" width="67" height="40" as="geometry">
            <mxRectangle width="67" height="40" as="alternateBounds" />
          </mxGeometry>
        </mxCell>
        <mxCell id="0rQHscwgg67SrnU-Jx7H-333" style="shape=partialRectangle;html=1;whiteSpace=wrap;connectable=0;strokeColor=inherit;overflow=hidden;fillColor=none;top=0;left=0;bottom=0;right=0;pointerEvents=1;" parent="0rQHscwgg67SrnU-Jx7H-277" vertex="1">
          <mxGeometry x="409" width="68" height="40" as="geometry">
            <mxRectangle width="68" height="40" as="alternateBounds" />
          </mxGeometry>
        </mxCell>
        <mxCell id="0rQHscwgg67SrnU-Jx7H-329" style="shape=partialRectangle;html=1;whiteSpace=wrap;connectable=0;strokeColor=inherit;overflow=hidden;fillColor=none;top=0;left=0;bottom=0;right=0;pointerEvents=1;" parent="0rQHscwgg67SrnU-Jx7H-277" vertex="1">
          <mxGeometry x="477" width="68" height="40" as="geometry">
            <mxRectangle width="68" height="40" as="alternateBounds" />
          </mxGeometry>
        </mxCell>
        <mxCell id="0rQHscwgg67SrnU-Jx7H-325" style="shape=partialRectangle;html=1;whiteSpace=wrap;connectable=0;strokeColor=inherit;overflow=hidden;fillColor=none;top=0;left=0;bottom=0;right=0;pointerEvents=1;" parent="0rQHscwgg67SrnU-Jx7H-277" vertex="1">
          <mxGeometry x="545" width="69" height="40" as="geometry">
            <mxRectangle width="69" height="40" as="alternateBounds" />
          </mxGeometry>
        </mxCell>
        <mxCell id="0rQHscwgg67SrnU-Jx7H-321" style="shape=partialRectangle;html=1;whiteSpace=wrap;connectable=0;strokeColor=inherit;overflow=hidden;fillColor=none;top=0;left=0;bottom=0;right=0;pointerEvents=1;" parent="0rQHscwgg67SrnU-Jx7H-277" vertex="1">
          <mxGeometry x="614" width="68" height="40" as="geometry">
            <mxRectangle width="68" height="40" as="alternateBounds" />
          </mxGeometry>
        </mxCell>
        <mxCell id="0rQHscwgg67SrnU-Jx7H-345" style="shape=partialRectangle;html=1;whiteSpace=wrap;connectable=0;strokeColor=inherit;overflow=hidden;fillColor=none;top=0;left=0;bottom=0;right=0;pointerEvents=1;" parent="0rQHscwgg67SrnU-Jx7H-277" vertex="1">
          <mxGeometry x="682" width="68" height="40" as="geometry">
            <mxRectangle width="68" height="40" as="alternateBounds" />
          </mxGeometry>
        </mxCell>
        <mxCell id="0rQHscwgg67SrnU-Jx7H-282" value="" style="shape=tableRow;horizontal=0;startSize=0;swimlaneHead=0;swimlaneBody=0;strokeColor=inherit;top=0;left=0;bottom=0;right=0;collapsible=0;dropTarget=0;fillColor=none;points=[[0,0.5],[1,0.5]];portConstraint=eastwest;" parent="0rQHscwgg67SrnU-Jx7H-271" vertex="1">
          <mxGeometry y="80" width="750" height="40" as="geometry" />
        </mxCell>
        <mxCell id="0rQHscwgg67SrnU-Jx7H-283" value="" style="shape=partialRectangle;html=1;whiteSpace=wrap;connectable=0;strokeColor=inherit;overflow=hidden;fillColor=none;top=0;left=0;bottom=0;right=0;pointerEvents=1;" parent="0rQHscwgg67SrnU-Jx7H-282" vertex="1">
          <mxGeometry width="68" height="40" as="geometry">
            <mxRectangle width="68" height="40" as="alternateBounds" />
          </mxGeometry>
        </mxCell>
        <mxCell id="0rQHscwgg67SrnU-Jx7H-284" value="" style="shape=partialRectangle;html=1;whiteSpace=wrap;connectable=0;strokeColor=inherit;overflow=hidden;fillColor=none;top=0;left=0;bottom=0;right=0;pointerEvents=1;" parent="0rQHscwgg67SrnU-Jx7H-282" vertex="1">
          <mxGeometry x="68" width="68" height="40" as="geometry">
            <mxRectangle width="68" height="40" as="alternateBounds" />
          </mxGeometry>
        </mxCell>
        <mxCell id="0rQHscwgg67SrnU-Jx7H-285" value="" style="shape=partialRectangle;html=1;whiteSpace=wrap;connectable=0;strokeColor=inherit;overflow=hidden;fillColor=none;top=0;left=0;bottom=0;right=0;pointerEvents=1;" parent="0rQHscwgg67SrnU-Jx7H-282" vertex="1">
          <mxGeometry x="136" width="69" height="40" as="geometry">
            <mxRectangle width="69" height="40" as="alternateBounds" />
          </mxGeometry>
        </mxCell>
        <mxCell id="0rQHscwgg67SrnU-Jx7H-286" value="" style="shape=partialRectangle;html=1;whiteSpace=wrap;connectable=0;strokeColor=inherit;overflow=hidden;fillColor=none;top=0;left=0;bottom=0;right=0;pointerEvents=1;" parent="0rQHscwgg67SrnU-Jx7H-282" vertex="1">
          <mxGeometry x="205" width="69" height="40" as="geometry">
            <mxRectangle width="69" height="40" as="alternateBounds" />
          </mxGeometry>
        </mxCell>
        <mxCell id="0rQHscwgg67SrnU-Jx7H-342" style="shape=partialRectangle;html=1;whiteSpace=wrap;connectable=0;strokeColor=inherit;overflow=hidden;fillColor=none;top=0;left=0;bottom=0;right=0;pointerEvents=1;" parent="0rQHscwgg67SrnU-Jx7H-282" vertex="1">
          <mxGeometry x="274" width="68" height="40" as="geometry">
            <mxRectangle width="68" height="40" as="alternateBounds" />
          </mxGeometry>
        </mxCell>
        <mxCell id="0rQHscwgg67SrnU-Jx7H-338" style="shape=partialRectangle;html=1;whiteSpace=wrap;connectable=0;strokeColor=inherit;overflow=hidden;fillColor=none;top=0;left=0;bottom=0;right=0;pointerEvents=1;" parent="0rQHscwgg67SrnU-Jx7H-282" vertex="1">
          <mxGeometry x="342" width="67" height="40" as="geometry">
            <mxRectangle width="67" height="40" as="alternateBounds" />
          </mxGeometry>
        </mxCell>
        <mxCell id="0rQHscwgg67SrnU-Jx7H-334" style="shape=partialRectangle;html=1;whiteSpace=wrap;connectable=0;strokeColor=inherit;overflow=hidden;fillColor=none;top=0;left=0;bottom=0;right=0;pointerEvents=1;" parent="0rQHscwgg67SrnU-Jx7H-282" vertex="1">
          <mxGeometry x="409" width="68" height="40" as="geometry">
            <mxRectangle width="68" height="40" as="alternateBounds" />
          </mxGeometry>
        </mxCell>
        <mxCell id="0rQHscwgg67SrnU-Jx7H-330" style="shape=partialRectangle;html=1;whiteSpace=wrap;connectable=0;strokeColor=inherit;overflow=hidden;fillColor=none;top=0;left=0;bottom=0;right=0;pointerEvents=1;" parent="0rQHscwgg67SrnU-Jx7H-282" vertex="1">
          <mxGeometry x="477" width="68" height="40" as="geometry">
            <mxRectangle width="68" height="40" as="alternateBounds" />
          </mxGeometry>
        </mxCell>
        <mxCell id="0rQHscwgg67SrnU-Jx7H-326" style="shape=partialRectangle;html=1;whiteSpace=wrap;connectable=0;strokeColor=inherit;overflow=hidden;fillColor=none;top=0;left=0;bottom=0;right=0;pointerEvents=1;" parent="0rQHscwgg67SrnU-Jx7H-282" vertex="1">
          <mxGeometry x="545" width="69" height="40" as="geometry">
            <mxRectangle width="69" height="40" as="alternateBounds" />
          </mxGeometry>
        </mxCell>
        <mxCell id="0rQHscwgg67SrnU-Jx7H-322" style="shape=partialRectangle;html=1;whiteSpace=wrap;connectable=0;strokeColor=inherit;overflow=hidden;fillColor=none;top=0;left=0;bottom=0;right=0;pointerEvents=1;" parent="0rQHscwgg67SrnU-Jx7H-282" vertex="1">
          <mxGeometry x="614" width="68" height="40" as="geometry">
            <mxRectangle width="68" height="40" as="alternateBounds" />
          </mxGeometry>
        </mxCell>
        <mxCell id="0rQHscwgg67SrnU-Jx7H-346" style="shape=partialRectangle;html=1;whiteSpace=wrap;connectable=0;strokeColor=inherit;overflow=hidden;fillColor=none;top=0;left=0;bottom=0;right=0;pointerEvents=1;" parent="0rQHscwgg67SrnU-Jx7H-282" vertex="1">
          <mxGeometry x="682" width="68" height="40" as="geometry">
            <mxRectangle width="68" height="40" as="alternateBounds" />
          </mxGeometry>
        </mxCell>
        <mxCell id="0rQHscwgg67SrnU-Jx7H-287" style="shape=tableRow;horizontal=0;startSize=0;swimlaneHead=0;swimlaneBody=0;strokeColor=inherit;top=0;left=0;bottom=0;right=0;collapsible=0;dropTarget=0;fillColor=none;points=[[0,0.5],[1,0.5]];portConstraint=eastwest;" parent="0rQHscwgg67SrnU-Jx7H-271" vertex="1">
          <mxGeometry y="120" width="750" height="40" as="geometry" />
        </mxCell>
        <mxCell id="0rQHscwgg67SrnU-Jx7H-288" style="shape=partialRectangle;html=1;whiteSpace=wrap;connectable=0;strokeColor=inherit;overflow=hidden;fillColor=none;top=0;left=0;bottom=0;right=0;pointerEvents=1;" parent="0rQHscwgg67SrnU-Jx7H-287" vertex="1">
          <mxGeometry width="68" height="40" as="geometry">
            <mxRectangle width="68" height="40" as="alternateBounds" />
          </mxGeometry>
        </mxCell>
        <mxCell id="0rQHscwgg67SrnU-Jx7H-289" style="shape=partialRectangle;html=1;whiteSpace=wrap;connectable=0;strokeColor=inherit;overflow=hidden;fillColor=none;top=0;left=0;bottom=0;right=0;pointerEvents=1;" parent="0rQHscwgg67SrnU-Jx7H-287" vertex="1">
          <mxGeometry x="68" width="68" height="40" as="geometry">
            <mxRectangle width="68" height="40" as="alternateBounds" />
          </mxGeometry>
        </mxCell>
        <mxCell id="0rQHscwgg67SrnU-Jx7H-290" style="shape=partialRectangle;html=1;whiteSpace=wrap;connectable=0;strokeColor=inherit;overflow=hidden;fillColor=none;top=0;left=0;bottom=0;right=0;pointerEvents=1;" parent="0rQHscwgg67SrnU-Jx7H-287" vertex="1">
          <mxGeometry x="136" width="69" height="40" as="geometry">
            <mxRectangle width="69" height="40" as="alternateBounds" />
          </mxGeometry>
        </mxCell>
        <mxCell id="0rQHscwgg67SrnU-Jx7H-291" style="shape=partialRectangle;html=1;whiteSpace=wrap;connectable=0;strokeColor=inherit;overflow=hidden;fillColor=none;top=0;left=0;bottom=0;right=0;pointerEvents=1;" parent="0rQHscwgg67SrnU-Jx7H-287" vertex="1">
          <mxGeometry x="205" width="69" height="40" as="geometry">
            <mxRectangle width="69" height="40" as="alternateBounds" />
          </mxGeometry>
        </mxCell>
        <mxCell id="0rQHscwgg67SrnU-Jx7H-343" style="shape=partialRectangle;html=1;whiteSpace=wrap;connectable=0;strokeColor=inherit;overflow=hidden;fillColor=none;top=0;left=0;bottom=0;right=0;pointerEvents=1;" parent="0rQHscwgg67SrnU-Jx7H-287" vertex="1">
          <mxGeometry x="274" width="68" height="40" as="geometry">
            <mxRectangle width="68" height="40" as="alternateBounds" />
          </mxGeometry>
        </mxCell>
        <mxCell id="0rQHscwgg67SrnU-Jx7H-339" style="shape=partialRectangle;html=1;whiteSpace=wrap;connectable=0;strokeColor=inherit;overflow=hidden;fillColor=none;top=0;left=0;bottom=0;right=0;pointerEvents=1;" parent="0rQHscwgg67SrnU-Jx7H-287" vertex="1">
          <mxGeometry x="342" width="67" height="40" as="geometry">
            <mxRectangle width="67" height="40" as="alternateBounds" />
          </mxGeometry>
        </mxCell>
        <mxCell id="0rQHscwgg67SrnU-Jx7H-335" style="shape=partialRectangle;html=1;whiteSpace=wrap;connectable=0;strokeColor=inherit;overflow=hidden;fillColor=none;top=0;left=0;bottom=0;right=0;pointerEvents=1;" parent="0rQHscwgg67SrnU-Jx7H-287" vertex="1">
          <mxGeometry x="409" width="68" height="40" as="geometry">
            <mxRectangle width="68" height="40" as="alternateBounds" />
          </mxGeometry>
        </mxCell>
        <mxCell id="0rQHscwgg67SrnU-Jx7H-331" style="shape=partialRectangle;html=1;whiteSpace=wrap;connectable=0;strokeColor=inherit;overflow=hidden;fillColor=none;top=0;left=0;bottom=0;right=0;pointerEvents=1;" parent="0rQHscwgg67SrnU-Jx7H-287" vertex="1">
          <mxGeometry x="477" width="68" height="40" as="geometry">
            <mxRectangle width="68" height="40" as="alternateBounds" />
          </mxGeometry>
        </mxCell>
        <mxCell id="0rQHscwgg67SrnU-Jx7H-327" style="shape=partialRectangle;html=1;whiteSpace=wrap;connectable=0;strokeColor=inherit;overflow=hidden;fillColor=none;top=0;left=0;bottom=0;right=0;pointerEvents=1;" parent="0rQHscwgg67SrnU-Jx7H-287" vertex="1">
          <mxGeometry x="545" width="69" height="40" as="geometry">
            <mxRectangle width="69" height="40" as="alternateBounds" />
          </mxGeometry>
        </mxCell>
        <mxCell id="0rQHscwgg67SrnU-Jx7H-323" style="shape=partialRectangle;html=1;whiteSpace=wrap;connectable=0;strokeColor=inherit;overflow=hidden;fillColor=none;top=0;left=0;bottom=0;right=0;pointerEvents=1;" parent="0rQHscwgg67SrnU-Jx7H-287" vertex="1">
          <mxGeometry x="614" width="68" height="40" as="geometry">
            <mxRectangle width="68" height="40" as="alternateBounds" />
          </mxGeometry>
        </mxCell>
        <mxCell id="0rQHscwgg67SrnU-Jx7H-347" style="shape=partialRectangle;html=1;whiteSpace=wrap;connectable=0;strokeColor=inherit;overflow=hidden;fillColor=none;top=0;left=0;bottom=0;right=0;pointerEvents=1;" parent="0rQHscwgg67SrnU-Jx7H-287" vertex="1">
          <mxGeometry x="682" width="68" height="40" as="geometry">
            <mxRectangle width="68" height="40" as="alternateBounds" />
          </mxGeometry>
        </mxCell>
        <mxCell id="0rQHscwgg67SrnU-Jx7H-313" value="Inactive" style="rounded=1;whiteSpace=wrap;html=1;fontFamily=Gochi Hand;fontSource=https%3A%2F%2Ffonts.googleapis.com%2Fcss%3Ffamily%3DGochi%2BHand;sketch=1;curveFitting=1;jiggle=2;fillColor=#bac8d3;strokeColor=#23445d;fontSize=21;labelPosition=center;verticalLabelPosition=middle;align=center;verticalAlign=middle;" parent="0rQHscwgg67SrnU-Jx7H-225" vertex="1">
          <mxGeometry x="290" y="430" width="750" height="50" as="geometry" />
        </mxCell>
        <mxCell id="0rQHscwgg67SrnU-Jx7H-314" value="BCM State" style="text;html=1;align=left;verticalAlign=middle;whiteSpace=wrap;rounded=0;fontFamily=Gochi Hand;fontSource=https%3A%2F%2Ffonts.googleapis.com%2Fcss%3Ffamily%3DGochi%2BHand;fontSize=24;fontStyle=1" parent="0rQHscwgg67SrnU-Jx7H-225" vertex="1">
          <mxGeometry x="290" y="110" width="750" height="50" as="geometry" />
        </mxCell>
        <mxCell id="0rQHscwgg67SrnU-Jx7H-348" value="" style="shape=table;startSize=0;container=1;collapsible=0;childLayout=tableLayout;sketch=1;curveFitting=1;jiggle=2;fontFamily=Gochi Hand;fontSource=https%3A%2F%2Ffonts.googleapis.com%2Fcss%3Ffamily%3DGochi%2BHand;fontSize=14;dashed=1;dashPattern=1 1;strokeColor=light-dark(#000000,#2E2E2E);" parent="0rQHscwgg67SrnU-Jx7H-225" vertex="1">
          <mxGeometry x="290" y="500" width="750" height="160" as="geometry" />
        </mxCell>
        <mxCell id="0rQHscwgg67SrnU-Jx7H-349" value="" style="shape=tableRow;horizontal=0;startSize=0;swimlaneHead=0;swimlaneBody=0;strokeColor=inherit;top=0;left=0;bottom=0;right=0;collapsible=0;dropTarget=0;fillColor=none;points=[[0,0.5],[1,0.5]];portConstraint=eastwest;" parent="0rQHscwgg67SrnU-Jx7H-348" vertex="1">
          <mxGeometry width="750" height="40" as="geometry" />
        </mxCell>
        <mxCell id="0rQHscwgg67SrnU-Jx7H-350" value="&lt;font face=&quot;Gochi Hand&quot;&gt;date&lt;/font&gt;" style="shape=partialRectangle;html=1;whiteSpace=wrap;connectable=0;strokeColor=inherit;overflow=hidden;fillColor=none;top=0;left=0;bottom=0;right=0;pointerEvents=1;fontSize=19;fontStyle=1" parent="0rQHscwgg67SrnU-Jx7H-349" vertex="1">
          <mxGeometry width="68" height="40" as="geometry">
            <mxRectangle width="68" height="40" as="alternateBounds" />
          </mxGeometry>
        </mxCell>
        <UserObject label="&lt;font face=&quot;Gochi Hand&quot;&gt;bc&lt;/font&gt;" link="&lt;font style=&quot;font-size: 16px;&quot; data-font-src=&quot;https://fonts.googleapis.com/css?family=Gochi+Hand&quot; face=&quot;Gochi Hand&quot;&gt;&lt;b&gt;battery id&lt;/b&gt;&lt;/font&gt;" id="0rQHscwgg67SrnU-Jx7H-351">
          <mxCell style="shape=partialRectangle;html=1;whiteSpace=wrap;connectable=0;strokeColor=inherit;overflow=hidden;fillColor=none;top=0;left=0;bottom=0;right=0;pointerEvents=1;fontSize=19;fontStyle=1" parent="0rQHscwgg67SrnU-Jx7H-349" vertex="1">
            <mxGeometry x="68" width="68" height="40" as="geometry">
              <mxRectangle width="68" height="40" as="alternateBounds" />
            </mxGeometry>
          </mxCell>
        </UserObject>
        <UserObject label="&lt;font face=&quot;Gochi Hand&quot;&gt;state&lt;/font&gt;" link="&lt;font style=&quot;font-size: 16px;&quot; data-font-src=&quot;https://fonts.googleapis.com/css?family=Gochi+Hand&quot; face=&quot;Gochi Hand&quot;&gt;&lt;b&gt;battery id&lt;/b&gt;&lt;/font&gt;" id="0rQHscwgg67SrnU-Jx7H-352">
          <mxCell style="shape=partialRectangle;html=1;whiteSpace=wrap;connectable=0;strokeColor=inherit;overflow=hidden;fillColor=none;top=0;left=0;bottom=0;right=0;pointerEvents=1;fontSize=19;fontStyle=1" parent="0rQHscwgg67SrnU-Jx7H-349" vertex="1">
            <mxGeometry x="136" width="69" height="40" as="geometry">
              <mxRectangle width="69" height="40" as="alternateBounds" />
            </mxGeometry>
          </mxCell>
        </UserObject>
        <UserObject label="&lt;font face=&quot;Gochi Hand&quot;&gt;bat_id&lt;/font&gt;" link="&lt;font style=&quot;font-size: 16px;&quot; data-font-src=&quot;https://fonts.googleapis.com/css?family=Gochi+Hand&quot; face=&quot;Gochi Hand&quot;&gt;&lt;b&gt;battery id&lt;/b&gt;&lt;/font&gt;" id="0rQHscwgg67SrnU-Jx7H-353">
          <mxCell style="shape=partialRectangle;html=1;whiteSpace=wrap;connectable=0;strokeColor=inherit;overflow=hidden;fillColor=none;top=0;left=0;bottom=0;right=0;pointerEvents=1;fontSize=19;fontStyle=1" parent="0rQHscwgg67SrnU-Jx7H-349" vertex="1">
            <mxGeometry x="205" width="69" height="40" as="geometry">
              <mxRectangle width="69" height="40" as="alternateBounds" />
            </mxGeometry>
          </mxCell>
        </UserObject>
        <mxCell id="0rQHscwgg67SrnU-Jx7H-354" value="&lt;font face=&quot;Gochi Hand&quot;&gt;voltage&lt;/font&gt;" style="shape=partialRectangle;html=1;whiteSpace=wrap;connectable=0;strokeColor=inherit;overflow=hidden;fillColor=none;top=0;left=0;bottom=0;right=0;pointerEvents=1;fontSize=19;fontStyle=1" parent="0rQHscwgg67SrnU-Jx7H-349" vertex="1">
          <mxGeometry x="274" width="68" height="40" as="geometry">
            <mxRectangle width="68" height="40" as="alternateBounds" />
          </mxGeometry>
        </mxCell>
        <mxCell id="0rQHscwgg67SrnU-Jx7H-355" value="&lt;font face=&quot;Gochi Hand&quot;&gt;current&lt;/font&gt;" style="shape=partialRectangle;html=1;whiteSpace=wrap;connectable=0;strokeColor=inherit;overflow=hidden;fillColor=none;top=0;left=0;bottom=0;right=0;pointerEvents=1;fontSize=19;fontStyle=1" parent="0rQHscwgg67SrnU-Jx7H-349" vertex="1">
          <mxGeometry x="342" width="67" height="40" as="geometry">
            <mxRectangle width="67" height="40" as="alternateBounds" />
          </mxGeometry>
        </mxCell>
        <mxCell id="0rQHscwgg67SrnU-Jx7H-356" value="&lt;font face=&quot;Gochi Hand&quot;&gt;mah&lt;/font&gt;" style="shape=partialRectangle;html=1;whiteSpace=wrap;connectable=0;strokeColor=inherit;overflow=hidden;fillColor=none;top=0;left=0;bottom=0;right=0;pointerEvents=1;fontSize=19;fontStyle=1" parent="0rQHscwgg67SrnU-Jx7H-349" vertex="1">
          <mxGeometry x="409" width="68" height="40" as="geometry">
            <mxRectangle width="68" height="40" as="alternateBounds" />
          </mxGeometry>
        </mxCell>
        <mxCell id="0rQHscwgg67SrnU-Jx7H-357" value="&lt;font face=&quot;Gochi Hand&quot;&gt;period&lt;/font&gt;" style="shape=partialRectangle;html=1;whiteSpace=wrap;connectable=0;strokeColor=inherit;overflow=hidden;fillColor=none;top=0;left=0;bottom=0;right=0;pointerEvents=1;fontSize=19;fontStyle=1" parent="0rQHscwgg67SrnU-Jx7H-349" vertex="1">
          <mxGeometry x="477" width="68" height="40" as="geometry">
            <mxRectangle width="68" height="40" as="alternateBounds" />
          </mxGeometry>
        </mxCell>
        <mxCell id="0rQHscwgg67SrnU-Jx7H-358" value="&lt;font face=&quot;Gochi Hand&quot;&gt;soc st&lt;/font&gt;" style="shape=partialRectangle;html=1;whiteSpace=wrap;connectable=0;strokeColor=inherit;overflow=hidden;fillColor=none;top=0;left=0;bottom=0;right=0;pointerEvents=1;fontSize=19;fontStyle=1" parent="0rQHscwgg67SrnU-Jx7H-349" vertex="1">
          <mxGeometry x="545" width="69" height="40" as="geometry">
            <mxRectangle width="69" height="40" as="alternateBounds" />
          </mxGeometry>
        </mxCell>
        <mxCell id="0rQHscwgg67SrnU-Jx7H-359" value="&lt;font face=&quot;Gochi Hand&quot;&gt;soc_uid&lt;/font&gt;" style="shape=partialRectangle;html=1;whiteSpace=wrap;connectable=0;strokeColor=inherit;overflow=hidden;fillColor=none;top=0;left=0;bottom=0;right=0;pointerEvents=1;fontSize=19;fontStyle=1" parent="0rQHscwgg67SrnU-Jx7H-349" vertex="1">
          <mxGeometry x="614" width="68" height="40" as="geometry">
            <mxRectangle width="68" height="40" as="alternateBounds" />
          </mxGeometry>
        </mxCell>
        <mxCell id="0rQHscwgg67SrnU-Jx7H-360" value="&lt;font face=&quot;Gochi Hand&quot;&gt;cycle&lt;/font&gt;" style="shape=partialRectangle;html=1;whiteSpace=wrap;connectable=0;strokeColor=inherit;overflow=hidden;fillColor=none;top=0;left=0;bottom=0;right=0;pointerEvents=1;fontSize=19;fontStyle=1" parent="0rQHscwgg67SrnU-Jx7H-349" vertex="1">
          <mxGeometry x="682" width="68" height="40" as="geometry">
            <mxRectangle width="68" height="40" as="alternateBounds" />
          </mxGeometry>
        </mxCell>
        <mxCell id="0rQHscwgg67SrnU-Jx7H-361" value="" style="shape=tableRow;horizontal=0;startSize=0;swimlaneHead=0;swimlaneBody=0;strokeColor=inherit;top=0;left=0;bottom=0;right=0;collapsible=0;dropTarget=0;fillColor=none;points=[[0,0.5],[1,0.5]];portConstraint=eastwest;" parent="0rQHscwgg67SrnU-Jx7H-348" vertex="1">
          <mxGeometry y="40" width="750" height="40" as="geometry" />
        </mxCell>
        <mxCell id="0rQHscwgg67SrnU-Jx7H-362" value="" style="shape=partialRectangle;html=1;whiteSpace=wrap;connectable=0;strokeColor=inherit;overflow=hidden;fillColor=none;top=0;left=0;bottom=0;right=0;pointerEvents=1;" parent="0rQHscwgg67SrnU-Jx7H-361" vertex="1">
          <mxGeometry width="68" height="40" as="geometry">
            <mxRectangle width="68" height="40" as="alternateBounds" />
          </mxGeometry>
        </mxCell>
        <mxCell id="0rQHscwgg67SrnU-Jx7H-363" value="" style="shape=partialRectangle;html=1;whiteSpace=wrap;connectable=0;strokeColor=inherit;overflow=hidden;fillColor=none;top=0;left=0;bottom=0;right=0;pointerEvents=1;" parent="0rQHscwgg67SrnU-Jx7H-361" vertex="1">
          <mxGeometry x="68" width="68" height="40" as="geometry">
            <mxRectangle width="68" height="40" as="alternateBounds" />
          </mxGeometry>
        </mxCell>
        <mxCell id="0rQHscwgg67SrnU-Jx7H-364" value="" style="shape=partialRectangle;html=1;whiteSpace=wrap;connectable=0;strokeColor=inherit;overflow=hidden;fillColor=none;top=0;left=0;bottom=0;right=0;pointerEvents=1;" parent="0rQHscwgg67SrnU-Jx7H-361" vertex="1">
          <mxGeometry x="136" width="69" height="40" as="geometry">
            <mxRectangle width="69" height="40" as="alternateBounds" />
          </mxGeometry>
        </mxCell>
        <mxCell id="0rQHscwgg67SrnU-Jx7H-365" value="" style="shape=partialRectangle;html=1;whiteSpace=wrap;connectable=0;strokeColor=inherit;overflow=hidden;fillColor=none;top=0;left=0;bottom=0;right=0;pointerEvents=1;" parent="0rQHscwgg67SrnU-Jx7H-361" vertex="1">
          <mxGeometry x="205" width="69" height="40" as="geometry">
            <mxRectangle width="69" height="40" as="alternateBounds" />
          </mxGeometry>
        </mxCell>
        <mxCell id="0rQHscwgg67SrnU-Jx7H-366" style="shape=partialRectangle;html=1;whiteSpace=wrap;connectable=0;strokeColor=inherit;overflow=hidden;fillColor=none;top=0;left=0;bottom=0;right=0;pointerEvents=1;" parent="0rQHscwgg67SrnU-Jx7H-361" vertex="1">
          <mxGeometry x="274" width="68" height="40" as="geometry">
            <mxRectangle width="68" height="40" as="alternateBounds" />
          </mxGeometry>
        </mxCell>
        <mxCell id="0rQHscwgg67SrnU-Jx7H-367" style="shape=partialRectangle;html=1;whiteSpace=wrap;connectable=0;strokeColor=inherit;overflow=hidden;fillColor=none;top=0;left=0;bottom=0;right=0;pointerEvents=1;" parent="0rQHscwgg67SrnU-Jx7H-361" vertex="1">
          <mxGeometry x="342" width="67" height="40" as="geometry">
            <mxRectangle width="67" height="40" as="alternateBounds" />
          </mxGeometry>
        </mxCell>
        <mxCell id="0rQHscwgg67SrnU-Jx7H-368" style="shape=partialRectangle;html=1;whiteSpace=wrap;connectable=0;strokeColor=inherit;overflow=hidden;fillColor=none;top=0;left=0;bottom=0;right=0;pointerEvents=1;" parent="0rQHscwgg67SrnU-Jx7H-361" vertex="1">
          <mxGeometry x="409" width="68" height="40" as="geometry">
            <mxRectangle width="68" height="40" as="alternateBounds" />
          </mxGeometry>
        </mxCell>
        <mxCell id="0rQHscwgg67SrnU-Jx7H-369" style="shape=partialRectangle;html=1;whiteSpace=wrap;connectable=0;strokeColor=inherit;overflow=hidden;fillColor=none;top=0;left=0;bottom=0;right=0;pointerEvents=1;" parent="0rQHscwgg67SrnU-Jx7H-361" vertex="1">
          <mxGeometry x="477" width="68" height="40" as="geometry">
            <mxRectangle width="68" height="40" as="alternateBounds" />
          </mxGeometry>
        </mxCell>
        <mxCell id="0rQHscwgg67SrnU-Jx7H-370" style="shape=partialRectangle;html=1;whiteSpace=wrap;connectable=0;strokeColor=inherit;overflow=hidden;fillColor=none;top=0;left=0;bottom=0;right=0;pointerEvents=1;" parent="0rQHscwgg67SrnU-Jx7H-361" vertex="1">
          <mxGeometry x="545" width="69" height="40" as="geometry">
            <mxRectangle width="69" height="40" as="alternateBounds" />
          </mxGeometry>
        </mxCell>
        <mxCell id="0rQHscwgg67SrnU-Jx7H-371" style="shape=partialRectangle;html=1;whiteSpace=wrap;connectable=0;strokeColor=inherit;overflow=hidden;fillColor=none;top=0;left=0;bottom=0;right=0;pointerEvents=1;" parent="0rQHscwgg67SrnU-Jx7H-361" vertex="1">
          <mxGeometry x="614" width="68" height="40" as="geometry">
            <mxRectangle width="68" height="40" as="alternateBounds" />
          </mxGeometry>
        </mxCell>
        <mxCell id="0rQHscwgg67SrnU-Jx7H-372" style="shape=partialRectangle;html=1;whiteSpace=wrap;connectable=0;strokeColor=inherit;overflow=hidden;fillColor=none;top=0;left=0;bottom=0;right=0;pointerEvents=1;" parent="0rQHscwgg67SrnU-Jx7H-361" vertex="1">
          <mxGeometry x="682" width="68" height="40" as="geometry">
            <mxRectangle width="68" height="40" as="alternateBounds" />
          </mxGeometry>
        </mxCell>
        <mxCell id="0rQHscwgg67SrnU-Jx7H-373" value="" style="shape=tableRow;horizontal=0;startSize=0;swimlaneHead=0;swimlaneBody=0;strokeColor=inherit;top=0;left=0;bottom=0;right=0;collapsible=0;dropTarget=0;fillColor=none;points=[[0,0.5],[1,0.5]];portConstraint=eastwest;" parent="0rQHscwgg67SrnU-Jx7H-348" vertex="1">
          <mxGeometry y="80" width="750" height="40" as="geometry" />
        </mxCell>
        <mxCell id="0rQHscwgg67SrnU-Jx7H-374" value="" style="shape=partialRectangle;html=1;whiteSpace=wrap;connectable=0;strokeColor=inherit;overflow=hidden;fillColor=none;top=0;left=0;bottom=0;right=0;pointerEvents=1;" parent="0rQHscwgg67SrnU-Jx7H-373" vertex="1">
          <mxGeometry width="68" height="40" as="geometry">
            <mxRectangle width="68" height="40" as="alternateBounds" />
          </mxGeometry>
        </mxCell>
        <mxCell id="0rQHscwgg67SrnU-Jx7H-375" value="" style="shape=partialRectangle;html=1;whiteSpace=wrap;connectable=0;strokeColor=inherit;overflow=hidden;fillColor=none;top=0;left=0;bottom=0;right=0;pointerEvents=1;" parent="0rQHscwgg67SrnU-Jx7H-373" vertex="1">
          <mxGeometry x="68" width="68" height="40" as="geometry">
            <mxRectangle width="68" height="40" as="alternateBounds" />
          </mxGeometry>
        </mxCell>
        <mxCell id="0rQHscwgg67SrnU-Jx7H-376" value="" style="shape=partialRectangle;html=1;whiteSpace=wrap;connectable=0;strokeColor=inherit;overflow=hidden;fillColor=none;top=0;left=0;bottom=0;right=0;pointerEvents=1;" parent="0rQHscwgg67SrnU-Jx7H-373" vertex="1">
          <mxGeometry x="136" width="69" height="40" as="geometry">
            <mxRectangle width="69" height="40" as="alternateBounds" />
          </mxGeometry>
        </mxCell>
        <mxCell id="0rQHscwgg67SrnU-Jx7H-377" value="" style="shape=partialRectangle;html=1;whiteSpace=wrap;connectable=0;strokeColor=inherit;overflow=hidden;fillColor=none;top=0;left=0;bottom=0;right=0;pointerEvents=1;" parent="0rQHscwgg67SrnU-Jx7H-373" vertex="1">
          <mxGeometry x="205" width="69" height="40" as="geometry">
            <mxRectangle width="69" height="40" as="alternateBounds" />
          </mxGeometry>
        </mxCell>
        <mxCell id="0rQHscwgg67SrnU-Jx7H-378" style="shape=partialRectangle;html=1;whiteSpace=wrap;connectable=0;strokeColor=inherit;overflow=hidden;fillColor=none;top=0;left=0;bottom=0;right=0;pointerEvents=1;" parent="0rQHscwgg67SrnU-Jx7H-373" vertex="1">
          <mxGeometry x="274" width="68" height="40" as="geometry">
            <mxRectangle width="68" height="40" as="alternateBounds" />
          </mxGeometry>
        </mxCell>
        <mxCell id="0rQHscwgg67SrnU-Jx7H-379" style="shape=partialRectangle;html=1;whiteSpace=wrap;connectable=0;strokeColor=inherit;overflow=hidden;fillColor=none;top=0;left=0;bottom=0;right=0;pointerEvents=1;" parent="0rQHscwgg67SrnU-Jx7H-373" vertex="1">
          <mxGeometry x="342" width="67" height="40" as="geometry">
            <mxRectangle width="67" height="40" as="alternateBounds" />
          </mxGeometry>
        </mxCell>
        <mxCell id="0rQHscwgg67SrnU-Jx7H-380" style="shape=partialRectangle;html=1;whiteSpace=wrap;connectable=0;strokeColor=inherit;overflow=hidden;fillColor=none;top=0;left=0;bottom=0;right=0;pointerEvents=1;" parent="0rQHscwgg67SrnU-Jx7H-373" vertex="1">
          <mxGeometry x="409" width="68" height="40" as="geometry">
            <mxRectangle width="68" height="40" as="alternateBounds" />
          </mxGeometry>
        </mxCell>
        <mxCell id="0rQHscwgg67SrnU-Jx7H-381" style="shape=partialRectangle;html=1;whiteSpace=wrap;connectable=0;strokeColor=inherit;overflow=hidden;fillColor=none;top=0;left=0;bottom=0;right=0;pointerEvents=1;" parent="0rQHscwgg67SrnU-Jx7H-373" vertex="1">
          <mxGeometry x="477" width="68" height="40" as="geometry">
            <mxRectangle width="68" height="40" as="alternateBounds" />
          </mxGeometry>
        </mxCell>
        <mxCell id="0rQHscwgg67SrnU-Jx7H-382" style="shape=partialRectangle;html=1;whiteSpace=wrap;connectable=0;strokeColor=inherit;overflow=hidden;fillColor=none;top=0;left=0;bottom=0;right=0;pointerEvents=1;" parent="0rQHscwgg67SrnU-Jx7H-373" vertex="1">
          <mxGeometry x="545" width="69" height="40" as="geometry">
            <mxRectangle width="69" height="40" as="alternateBounds" />
          </mxGeometry>
        </mxCell>
        <mxCell id="0rQHscwgg67SrnU-Jx7H-383" style="shape=partialRectangle;html=1;whiteSpace=wrap;connectable=0;strokeColor=inherit;overflow=hidden;fillColor=none;top=0;left=0;bottom=0;right=0;pointerEvents=1;" parent="0rQHscwgg67SrnU-Jx7H-373" vertex="1">
          <mxGeometry x="614" width="68" height="40" as="geometry">
            <mxRectangle width="68" height="40" as="alternateBounds" />
          </mxGeometry>
        </mxCell>
        <mxCell id="0rQHscwgg67SrnU-Jx7H-384" style="shape=partialRectangle;html=1;whiteSpace=wrap;connectable=0;strokeColor=inherit;overflow=hidden;fillColor=none;top=0;left=0;bottom=0;right=0;pointerEvents=1;" parent="0rQHscwgg67SrnU-Jx7H-373" vertex="1">
          <mxGeometry x="682" width="68" height="40" as="geometry">
            <mxRectangle width="68" height="40" as="alternateBounds" />
          </mxGeometry>
        </mxCell>
        <mxCell id="0rQHscwgg67SrnU-Jx7H-385" style="shape=tableRow;horizontal=0;startSize=0;swimlaneHead=0;swimlaneBody=0;strokeColor=inherit;top=0;left=0;bottom=0;right=0;collapsible=0;dropTarget=0;fillColor=none;points=[[0,0.5],[1,0.5]];portConstraint=eastwest;" parent="0rQHscwgg67SrnU-Jx7H-348" vertex="1">
          <mxGeometry y="120" width="750" height="40" as="geometry" />
        </mxCell>
        <mxCell id="0rQHscwgg67SrnU-Jx7H-386" style="shape=partialRectangle;html=1;whiteSpace=wrap;connectable=0;strokeColor=inherit;overflow=hidden;fillColor=none;top=0;left=0;bottom=0;right=0;pointerEvents=1;" parent="0rQHscwgg67SrnU-Jx7H-385" vertex="1">
          <mxGeometry width="68" height="40" as="geometry">
            <mxRectangle width="68" height="40" as="alternateBounds" />
          </mxGeometry>
        </mxCell>
        <mxCell id="0rQHscwgg67SrnU-Jx7H-387" style="shape=partialRectangle;html=1;whiteSpace=wrap;connectable=0;strokeColor=inherit;overflow=hidden;fillColor=none;top=0;left=0;bottom=0;right=0;pointerEvents=1;" parent="0rQHscwgg67SrnU-Jx7H-385" vertex="1">
          <mxGeometry x="68" width="68" height="40" as="geometry">
            <mxRectangle width="68" height="40" as="alternateBounds" />
          </mxGeometry>
        </mxCell>
        <mxCell id="0rQHscwgg67SrnU-Jx7H-388" style="shape=partialRectangle;html=1;whiteSpace=wrap;connectable=0;strokeColor=inherit;overflow=hidden;fillColor=none;top=0;left=0;bottom=0;right=0;pointerEvents=1;" parent="0rQHscwgg67SrnU-Jx7H-385" vertex="1">
          <mxGeometry x="136" width="69" height="40" as="geometry">
            <mxRectangle width="69" height="40" as="alternateBounds" />
          </mxGeometry>
        </mxCell>
        <mxCell id="0rQHscwgg67SrnU-Jx7H-389" style="shape=partialRectangle;html=1;whiteSpace=wrap;connectable=0;strokeColor=inherit;overflow=hidden;fillColor=none;top=0;left=0;bottom=0;right=0;pointerEvents=1;" parent="0rQHscwgg67SrnU-Jx7H-385" vertex="1">
          <mxGeometry x="205" width="69" height="40" as="geometry">
            <mxRectangle width="69" height="40" as="alternateBounds" />
          </mxGeometry>
        </mxCell>
        <mxCell id="0rQHscwgg67SrnU-Jx7H-390" style="shape=partialRectangle;html=1;whiteSpace=wrap;connectable=0;strokeColor=inherit;overflow=hidden;fillColor=none;top=0;left=0;bottom=0;right=0;pointerEvents=1;" parent="0rQHscwgg67SrnU-Jx7H-385" vertex="1">
          <mxGeometry x="274" width="68" height="40" as="geometry">
            <mxRectangle width="68" height="40" as="alternateBounds" />
          </mxGeometry>
        </mxCell>
        <mxCell id="0rQHscwgg67SrnU-Jx7H-391" style="shape=partialRectangle;html=1;whiteSpace=wrap;connectable=0;strokeColor=inherit;overflow=hidden;fillColor=none;top=0;left=0;bottom=0;right=0;pointerEvents=1;" parent="0rQHscwgg67SrnU-Jx7H-385" vertex="1">
          <mxGeometry x="342" width="67" height="40" as="geometry">
            <mxRectangle width="67" height="40" as="alternateBounds" />
          </mxGeometry>
        </mxCell>
        <mxCell id="0rQHscwgg67SrnU-Jx7H-392" style="shape=partialRectangle;html=1;whiteSpace=wrap;connectable=0;strokeColor=inherit;overflow=hidden;fillColor=none;top=0;left=0;bottom=0;right=0;pointerEvents=1;" parent="0rQHscwgg67SrnU-Jx7H-385" vertex="1">
          <mxGeometry x="409" width="68" height="40" as="geometry">
            <mxRectangle width="68" height="40" as="alternateBounds" />
          </mxGeometry>
        </mxCell>
        <mxCell id="0rQHscwgg67SrnU-Jx7H-393" style="shape=partialRectangle;html=1;whiteSpace=wrap;connectable=0;strokeColor=inherit;overflow=hidden;fillColor=none;top=0;left=0;bottom=0;right=0;pointerEvents=1;" parent="0rQHscwgg67SrnU-Jx7H-385" vertex="1">
          <mxGeometry x="477" width="68" height="40" as="geometry">
            <mxRectangle width="68" height="40" as="alternateBounds" />
          </mxGeometry>
        </mxCell>
        <mxCell id="0rQHscwgg67SrnU-Jx7H-394" style="shape=partialRectangle;html=1;whiteSpace=wrap;connectable=0;strokeColor=inherit;overflow=hidden;fillColor=none;top=0;left=0;bottom=0;right=0;pointerEvents=1;" parent="0rQHscwgg67SrnU-Jx7H-385" vertex="1">
          <mxGeometry x="545" width="69" height="40" as="geometry">
            <mxRectangle width="69" height="40" as="alternateBounds" />
          </mxGeometry>
        </mxCell>
        <mxCell id="0rQHscwgg67SrnU-Jx7H-395" style="shape=partialRectangle;html=1;whiteSpace=wrap;connectable=0;strokeColor=inherit;overflow=hidden;fillColor=none;top=0;left=0;bottom=0;right=0;pointerEvents=1;" parent="0rQHscwgg67SrnU-Jx7H-385" vertex="1">
          <mxGeometry x="614" width="68" height="40" as="geometry">
            <mxRectangle width="68" height="40" as="alternateBounds" />
          </mxGeometry>
        </mxCell>
        <mxCell id="0rQHscwgg67SrnU-Jx7H-396" style="shape=partialRectangle;html=1;whiteSpace=wrap;connectable=0;strokeColor=inherit;overflow=hidden;fillColor=none;top=0;left=0;bottom=0;right=0;pointerEvents=1;" parent="0rQHscwgg67SrnU-Jx7H-385" vertex="1">
          <mxGeometry x="682" width="68" height="40" as="geometry">
            <mxRectangle width="68" height="40" as="alternateBounds" />
          </mxGeometry>
        </mxCell>
        <object label="Events" id="0rQHscwgg67SrnU-Jx7H-9">
          <mxCell parent="0" visible="0" />
        </object>
        <mxCell id="0rQHscwgg67SrnU-Jx7H-11" value="All unallocated Battery events" style="rounded=1;whiteSpace=wrap;html=1;fontFamily=Gochi Hand;fontSource=https%3A%2F%2Ffonts.googleapis.com%2Fcss%3Ffamily%3DGochi%2BHand;sketch=1;curveFitting=1;jiggle=2;fillColor=#bac8d3;strokeColor=#23445d;fontSize=21;labelPosition=center;verticalLabelPosition=middle;align=center;verticalAlign=middle;" parent="0rQHscwgg67SrnU-Jx7H-9" vertex="1">
          <mxGeometry x="290" y="110" width="750" height="50" as="geometry" />
        </mxCell>
        <mxCell id="0rQHscwgg67SrnU-Jx7H-12" value="" style="endArrow=none;html=1;rounded=0;sketch=1;curveFitting=1;jiggle=2;fillColor=#ffcc99;strokeColor=light-dark(#36393D,#FF8000);" parent="0rQHscwgg67SrnU-Jx7H-9" edge="1">
          <mxGeometry width="50" height="50" relative="1" as="geometry">
            <mxPoint x="270" y="680" as="sourcePoint" />
            <mxPoint x="270" y="110" as="targetPoint" />
          </mxGeometry>
        </mxCell>
        <mxCell id="0rQHscwgg67SrnU-Jx7H-39" value="" style="shape=table;startSize=0;container=1;collapsible=0;childLayout=tableLayout;sketch=1;curveFitting=1;jiggle=2;fontFamily=Gochi Hand;fontSource=https%3A%2F%2Ffonts.googleapis.com%2Fcss%3Ffamily%3DGochi%2BHand;fontSize=14;dashed=1;dashPattern=1 1;strokeColor=light-dark(#000000,#2E2E2E);" parent="0rQHscwgg67SrnU-Jx7H-9" vertex="1">
          <mxGeometry x="290" y="190" width="750" height="320" as="geometry" />
        </mxCell>
        <mxCell id="0rQHscwgg67SrnU-Jx7H-40" value="" style="shape=tableRow;horizontal=0;startSize=0;swimlaneHead=0;swimlaneBody=0;strokeColor=inherit;top=0;left=0;bottom=0;right=0;collapsible=0;dropTarget=0;fillColor=none;points=[[0,0.5],[1,0.5]];portConstraint=eastwest;" parent="0rQHscwgg67SrnU-Jx7H-39" vertex="1">
          <mxGeometry width="750" height="40" as="geometry" />
        </mxCell>
        <mxCell id="0rQHscwgg67SrnU-Jx7H-41" value="&lt;font data-font-src=&quot;https://fonts.googleapis.com/css?family=Gochi+Hand&quot; face=&quot;Gochi Hand&quot;&gt;&lt;span&gt;battery id&lt;/span&gt;&lt;/font&gt;" style="shape=partialRectangle;html=1;whiteSpace=wrap;connectable=0;strokeColor=inherit;overflow=hidden;fillColor=none;top=0;left=0;bottom=0;right=0;pointerEvents=1;fontSize=19;fontStyle=1" parent="0rQHscwgg67SrnU-Jx7H-40" vertex="1">
          <mxGeometry width="188" height="40" as="geometry">
            <mxRectangle width="188" height="40" as="alternateBounds" />
          </mxGeometry>
        </mxCell>
        <UserObject label="&lt;font face=&quot;Gochi Hand&quot;&gt;&lt;span&gt;date&lt;/span&gt;&lt;/font&gt;" link="&lt;font style=&quot;font-size: 16px;&quot; data-font-src=&quot;https://fonts.googleapis.com/css?family=Gochi+Hand&quot; face=&quot;Gochi Hand&quot;&gt;&lt;b&gt;battery id&lt;/b&gt;&lt;/font&gt;" id="0rQHscwgg67SrnU-Jx7H-42">
          <mxCell style="shape=partialRectangle;html=1;whiteSpace=wrap;connectable=0;strokeColor=inherit;overflow=hidden;fillColor=none;top=0;left=0;bottom=0;right=0;pointerEvents=1;fontSize=19;fontStyle=1" parent="0rQHscwgg67SrnU-Jx7H-40" vertex="1">
            <mxGeometry x="188" width="187" height="40" as="geometry">
              <mxRectangle width="187" height="40" as="alternateBounds" />
            </mxGeometry>
          </mxCell>
        </UserObject>
        <UserObject label="&lt;font face=&quot;Gochi Hand&quot;&gt;&lt;span&gt;bc&lt;/span&gt;&lt;/font&gt;" link="&lt;font style=&quot;font-size: 16px;&quot; data-font-src=&quot;https://fonts.googleapis.com/css?family=Gochi+Hand&quot; face=&quot;Gochi Hand&quot;&gt;&lt;b&gt;battery id&lt;/b&gt;&lt;/font&gt;" id="0rQHscwgg67SrnU-Jx7H-43">
          <mxCell style="shape=partialRectangle;html=1;whiteSpace=wrap;connectable=0;strokeColor=inherit;overflow=hidden;fillColor=none;top=0;left=0;bottom=0;right=0;pointerEvents=1;fontSize=19;fontStyle=1" parent="0rQHscwgg67SrnU-Jx7H-40" vertex="1">
            <mxGeometry x="375" width="188" height="40" as="geometry">
              <mxRectangle width="188" height="40" as="alternateBounds" />
            </mxGeometry>
          </mxCell>
        </UserObject>
        <UserObject label="&lt;font face=&quot;Gochi Hand&quot;&gt;&lt;span&gt;events&lt;/span&gt;&lt;/font&gt;" link="&lt;font style=&quot;font-size: 16px;&quot; data-font-src=&quot;https://fonts.googleapis.com/css?family=Gochi+Hand&quot; face=&quot;Gochi Hand&quot;&gt;&lt;b&gt;battery id&lt;/b&gt;&lt;/font&gt;" id="0rQHscwgg67SrnU-Jx7H-44">
          <mxCell style="shape=partialRectangle;html=1;whiteSpace=wrap;connectable=0;strokeColor=inherit;overflow=hidden;fillColor=none;top=0;left=0;bottom=0;right=0;pointerEvents=1;fontSize=19;fontStyle=1" parent="0rQHscwgg67SrnU-Jx7H-40" vertex="1">
            <mxGeometry x="563" width="187" height="40" as="geometry">
              <mxRectangle width="187" height="40" as="alternateBounds" />
            </mxGeometry>
          </mxCell>
        </UserObject>
        <mxCell id="0rQHscwgg67SrnU-Jx7H-45" value="" style="shape=tableRow;horizontal=0;startSize=0;swimlaneHead=0;swimlaneBody=0;strokeColor=inherit;top=0;left=0;bottom=0;right=0;collapsible=0;dropTarget=0;fillColor=none;points=[[0,0.5],[1,0.5]];portConstraint=eastwest;" parent="0rQHscwgg67SrnU-Jx7H-39" vertex="1">
          <mxGeometry y="40" width="750" height="40" as="geometry" />
        </mxCell>
        <mxCell id="0rQHscwgg67SrnU-Jx7H-46" value="" style="shape=partialRectangle;html=1;whiteSpace=wrap;connectable=0;strokeColor=inherit;overflow=hidden;fillColor=none;top=0;left=0;bottom=0;right=0;pointerEvents=1;" parent="0rQHscwgg67SrnU-Jx7H-45" vertex="1">
          <mxGeometry width="188" height="40" as="geometry">
            <mxRectangle width="188" height="40" as="alternateBounds" />
          </mxGeometry>
        </mxCell>
        <mxCell id="0rQHscwgg67SrnU-Jx7H-47" value="" style="shape=partialRectangle;html=1;whiteSpace=wrap;connectable=0;strokeColor=inherit;overflow=hidden;fillColor=none;top=0;left=0;bottom=0;right=0;pointerEvents=1;" parent="0rQHscwgg67SrnU-Jx7H-45" vertex="1">
          <mxGeometry x="188" width="187" height="40" as="geometry">
            <mxRectangle width="187" height="40" as="alternateBounds" />
          </mxGeometry>
        </mxCell>
        <mxCell id="0rQHscwgg67SrnU-Jx7H-48" value="" style="shape=partialRectangle;html=1;whiteSpace=wrap;connectable=0;strokeColor=inherit;overflow=hidden;fillColor=none;top=0;left=0;bottom=0;right=0;pointerEvents=1;" parent="0rQHscwgg67SrnU-Jx7H-45" vertex="1">
          <mxGeometry x="375" width="188" height="40" as="geometry">
            <mxRectangle width="188" height="40" as="alternateBounds" />
          </mxGeometry>
        </mxCell>
        <mxCell id="0rQHscwgg67SrnU-Jx7H-49" value="" style="shape=partialRectangle;html=1;whiteSpace=wrap;connectable=0;strokeColor=inherit;overflow=hidden;fillColor=none;top=0;left=0;bottom=0;right=0;pointerEvents=1;" parent="0rQHscwgg67SrnU-Jx7H-45" vertex="1">
          <mxGeometry x="563" width="187" height="40" as="geometry">
            <mxRectangle width="187" height="40" as="alternateBounds" />
          </mxGeometry>
        </mxCell>
        <mxCell id="0rQHscwgg67SrnU-Jx7H-50" value="" style="shape=tableRow;horizontal=0;startSize=0;swimlaneHead=0;swimlaneBody=0;strokeColor=inherit;top=0;left=0;bottom=0;right=0;collapsible=0;dropTarget=0;fillColor=none;points=[[0,0.5],[1,0.5]];portConstraint=eastwest;" parent="0rQHscwgg67SrnU-Jx7H-39" vertex="1">
          <mxGeometry y="80" width="750" height="40" as="geometry" />
        </mxCell>
        <mxCell id="0rQHscwgg67SrnU-Jx7H-51" value="" style="shape=partialRectangle;html=1;whiteSpace=wrap;connectable=0;strokeColor=inherit;overflow=hidden;fillColor=none;top=0;left=0;bottom=0;right=0;pointerEvents=1;" parent="0rQHscwgg67SrnU-Jx7H-50" vertex="1">
          <mxGeometry width="188" height="40" as="geometry">
            <mxRectangle width="188" height="40" as="alternateBounds" />
          </mxGeometry>
        </mxCell>
        <mxCell id="0rQHscwgg67SrnU-Jx7H-52" value="" style="shape=partialRectangle;html=1;whiteSpace=wrap;connectable=0;strokeColor=inherit;overflow=hidden;fillColor=none;top=0;left=0;bottom=0;right=0;pointerEvents=1;" parent="0rQHscwgg67SrnU-Jx7H-50" vertex="1">
          <mxGeometry x="188" width="187" height="40" as="geometry">
            <mxRectangle width="187" height="40" as="alternateBounds" />
          </mxGeometry>
        </mxCell>
        <mxCell id="0rQHscwgg67SrnU-Jx7H-53" value="" style="shape=partialRectangle;html=1;whiteSpace=wrap;connectable=0;strokeColor=inherit;overflow=hidden;fillColor=none;top=0;left=0;bottom=0;right=0;pointerEvents=1;" parent="0rQHscwgg67SrnU-Jx7H-50" vertex="1">
          <mxGeometry x="375" width="188" height="40" as="geometry">
            <mxRectangle width="188" height="40" as="alternateBounds" />
          </mxGeometry>
        </mxCell>
        <mxCell id="0rQHscwgg67SrnU-Jx7H-54" value="" style="shape=partialRectangle;html=1;whiteSpace=wrap;connectable=0;strokeColor=inherit;overflow=hidden;fillColor=none;top=0;left=0;bottom=0;right=0;pointerEvents=1;" parent="0rQHscwgg67SrnU-Jx7H-50" vertex="1">
          <mxGeometry x="563" width="187" height="40" as="geometry">
            <mxRectangle width="187" height="40" as="alternateBounds" />
          </mxGeometry>
        </mxCell>
        <mxCell id="0rQHscwgg67SrnU-Jx7H-75" style="shape=tableRow;horizontal=0;startSize=0;swimlaneHead=0;swimlaneBody=0;strokeColor=inherit;top=0;left=0;bottom=0;right=0;collapsible=0;dropTarget=0;fillColor=none;points=[[0,0.5],[1,0.5]];portConstraint=eastwest;" parent="0rQHscwgg67SrnU-Jx7H-39" vertex="1">
          <mxGeometry y="120" width="750" height="40" as="geometry" />
        </mxCell>
        <mxCell id="0rQHscwgg67SrnU-Jx7H-76" style="shape=partialRectangle;html=1;whiteSpace=wrap;connectable=0;strokeColor=inherit;overflow=hidden;fillColor=none;top=0;left=0;bottom=0;right=0;pointerEvents=1;" parent="0rQHscwgg67SrnU-Jx7H-75" vertex="1">
          <mxGeometry width="188" height="40" as="geometry">
            <mxRectangle width="188" height="40" as="alternateBounds" />
          </mxGeometry>
        </mxCell>
        <mxCell id="0rQHscwgg67SrnU-Jx7H-77" style="shape=partialRectangle;html=1;whiteSpace=wrap;connectable=0;strokeColor=inherit;overflow=hidden;fillColor=none;top=0;left=0;bottom=0;right=0;pointerEvents=1;" parent="0rQHscwgg67SrnU-Jx7H-75" vertex="1">
          <mxGeometry x="188" width="187" height="40" as="geometry">
            <mxRectangle width="187" height="40" as="alternateBounds" />
          </mxGeometry>
        </mxCell>
        <mxCell id="0rQHscwgg67SrnU-Jx7H-78" style="shape=partialRectangle;html=1;whiteSpace=wrap;connectable=0;strokeColor=inherit;overflow=hidden;fillColor=none;top=0;left=0;bottom=0;right=0;pointerEvents=1;" parent="0rQHscwgg67SrnU-Jx7H-75" vertex="1">
          <mxGeometry x="375" width="188" height="40" as="geometry">
            <mxRectangle width="188" height="40" as="alternateBounds" />
          </mxGeometry>
        </mxCell>
        <mxCell id="0rQHscwgg67SrnU-Jx7H-79" style="shape=partialRectangle;html=1;whiteSpace=wrap;connectable=0;strokeColor=inherit;overflow=hidden;fillColor=none;top=0;left=0;bottom=0;right=0;pointerEvents=1;" parent="0rQHscwgg67SrnU-Jx7H-75" vertex="1">
          <mxGeometry x="563" width="187" height="40" as="geometry">
            <mxRectangle width="187" height="40" as="alternateBounds" />
          </mxGeometry>
        </mxCell>
        <mxCell id="0rQHscwgg67SrnU-Jx7H-70" style="shape=tableRow;horizontal=0;startSize=0;swimlaneHead=0;swimlaneBody=0;strokeColor=inherit;top=0;left=0;bottom=0;right=0;collapsible=0;dropTarget=0;fillColor=none;points=[[0,0.5],[1,0.5]];portConstraint=eastwest;" parent="0rQHscwgg67SrnU-Jx7H-39" vertex="1">
          <mxGeometry y="160" width="750" height="40" as="geometry" />
        </mxCell>
        <mxCell id="0rQHscwgg67SrnU-Jx7H-71" style="shape=partialRectangle;html=1;whiteSpace=wrap;connectable=0;strokeColor=inherit;overflow=hidden;fillColor=none;top=0;left=0;bottom=0;right=0;pointerEvents=1;" parent="0rQHscwgg67SrnU-Jx7H-70" vertex="1">
          <mxGeometry width="188" height="40" as="geometry">
            <mxRectangle width="188" height="40" as="alternateBounds" />
          </mxGeometry>
        </mxCell>
        <mxCell id="0rQHscwgg67SrnU-Jx7H-72" style="shape=partialRectangle;html=1;whiteSpace=wrap;connectable=0;strokeColor=inherit;overflow=hidden;fillColor=none;top=0;left=0;bottom=0;right=0;pointerEvents=1;" parent="0rQHscwgg67SrnU-Jx7H-70" vertex="1">
          <mxGeometry x="188" width="187" height="40" as="geometry">
            <mxRectangle width="187" height="40" as="alternateBounds" />
          </mxGeometry>
        </mxCell>
        <mxCell id="0rQHscwgg67SrnU-Jx7H-73" style="shape=partialRectangle;html=1;whiteSpace=wrap;connectable=0;strokeColor=inherit;overflow=hidden;fillColor=none;top=0;left=0;bottom=0;right=0;pointerEvents=1;" parent="0rQHscwgg67SrnU-Jx7H-70" vertex="1">
          <mxGeometry x="375" width="188" height="40" as="geometry">
            <mxRectangle width="188" height="40" as="alternateBounds" />
          </mxGeometry>
        </mxCell>
        <mxCell id="0rQHscwgg67SrnU-Jx7H-74" style="shape=partialRectangle;html=1;whiteSpace=wrap;connectable=0;strokeColor=inherit;overflow=hidden;fillColor=none;top=0;left=0;bottom=0;right=0;pointerEvents=1;" parent="0rQHscwgg67SrnU-Jx7H-70" vertex="1">
          <mxGeometry x="563" width="187" height="40" as="geometry">
            <mxRectangle width="187" height="40" as="alternateBounds" />
          </mxGeometry>
        </mxCell>
        <mxCell id="0rQHscwgg67SrnU-Jx7H-65" style="shape=tableRow;horizontal=0;startSize=0;swimlaneHead=0;swimlaneBody=0;strokeColor=inherit;top=0;left=0;bottom=0;right=0;collapsible=0;dropTarget=0;fillColor=none;points=[[0,0.5],[1,0.5]];portConstraint=eastwest;" parent="0rQHscwgg67SrnU-Jx7H-39" vertex="1">
          <mxGeometry y="200" width="750" height="40" as="geometry" />
        </mxCell>
        <mxCell id="0rQHscwgg67SrnU-Jx7H-66" style="shape=partialRectangle;html=1;whiteSpace=wrap;connectable=0;strokeColor=inherit;overflow=hidden;fillColor=none;top=0;left=0;bottom=0;right=0;pointerEvents=1;" parent="0rQHscwgg67SrnU-Jx7H-65" vertex="1">
          <mxGeometry width="188" height="40" as="geometry">
            <mxRectangle width="188" height="40" as="alternateBounds" />
          </mxGeometry>
        </mxCell>
        <mxCell id="0rQHscwgg67SrnU-Jx7H-67" style="shape=partialRectangle;html=1;whiteSpace=wrap;connectable=0;strokeColor=inherit;overflow=hidden;fillColor=none;top=0;left=0;bottom=0;right=0;pointerEvents=1;" parent="0rQHscwgg67SrnU-Jx7H-65" vertex="1">
          <mxGeometry x="188" width="187" height="40" as="geometry">
            <mxRectangle width="187" height="40" as="alternateBounds" />
          </mxGeometry>
        </mxCell>
        <mxCell id="0rQHscwgg67SrnU-Jx7H-68" style="shape=partialRectangle;html=1;whiteSpace=wrap;connectable=0;strokeColor=inherit;overflow=hidden;fillColor=none;top=0;left=0;bottom=0;right=0;pointerEvents=1;" parent="0rQHscwgg67SrnU-Jx7H-65" vertex="1">
          <mxGeometry x="375" width="188" height="40" as="geometry">
            <mxRectangle width="188" height="40" as="alternateBounds" />
          </mxGeometry>
        </mxCell>
        <mxCell id="0rQHscwgg67SrnU-Jx7H-69" style="shape=partialRectangle;html=1;whiteSpace=wrap;connectable=0;strokeColor=inherit;overflow=hidden;fillColor=none;top=0;left=0;bottom=0;right=0;pointerEvents=1;" parent="0rQHscwgg67SrnU-Jx7H-65" vertex="1">
          <mxGeometry x="563" width="187" height="40" as="geometry">
            <mxRectangle width="187" height="40" as="alternateBounds" />
          </mxGeometry>
        </mxCell>
        <mxCell id="0rQHscwgg67SrnU-Jx7H-60" style="shape=tableRow;horizontal=0;startSize=0;swimlaneHead=0;swimlaneBody=0;strokeColor=inherit;top=0;left=0;bottom=0;right=0;collapsible=0;dropTarget=0;fillColor=none;points=[[0,0.5],[1,0.5]];portConstraint=eastwest;" parent="0rQHscwgg67SrnU-Jx7H-39" vertex="1">
          <mxGeometry y="240" width="750" height="40" as="geometry" />
        </mxCell>
        <mxCell id="0rQHscwgg67SrnU-Jx7H-61" style="shape=partialRectangle;html=1;whiteSpace=wrap;connectable=0;strokeColor=inherit;overflow=hidden;fillColor=none;top=0;left=0;bottom=0;right=0;pointerEvents=1;" parent="0rQHscwgg67SrnU-Jx7H-60" vertex="1">
          <mxGeometry width="188" height="40" as="geometry">
            <mxRectangle width="188" height="40" as="alternateBounds" />
          </mxGeometry>
        </mxCell>
        <mxCell id="0rQHscwgg67SrnU-Jx7H-62" style="shape=partialRectangle;html=1;whiteSpace=wrap;connectable=0;strokeColor=inherit;overflow=hidden;fillColor=none;top=0;left=0;bottom=0;right=0;pointerEvents=1;" parent="0rQHscwgg67SrnU-Jx7H-60" vertex="1">
          <mxGeometry x="188" width="187" height="40" as="geometry">
            <mxRectangle width="187" height="40" as="alternateBounds" />
          </mxGeometry>
        </mxCell>
        <mxCell id="0rQHscwgg67SrnU-Jx7H-63" style="shape=partialRectangle;html=1;whiteSpace=wrap;connectable=0;strokeColor=inherit;overflow=hidden;fillColor=none;top=0;left=0;bottom=0;right=0;pointerEvents=1;" parent="0rQHscwgg67SrnU-Jx7H-60" vertex="1">
          <mxGeometry x="375" width="188" height="40" as="geometry">
            <mxRectangle width="188" height="40" as="alternateBounds" />
          </mxGeometry>
        </mxCell>
        <mxCell id="0rQHscwgg67SrnU-Jx7H-64" style="shape=partialRectangle;html=1;whiteSpace=wrap;connectable=0;strokeColor=inherit;overflow=hidden;fillColor=none;top=0;left=0;bottom=0;right=0;pointerEvents=1;" parent="0rQHscwgg67SrnU-Jx7H-60" vertex="1">
          <mxGeometry x="563" width="187" height="40" as="geometry">
            <mxRectangle width="187" height="40" as="alternateBounds" />
          </mxGeometry>
        </mxCell>
        <mxCell id="0rQHscwgg67SrnU-Jx7H-55" style="shape=tableRow;horizontal=0;startSize=0;swimlaneHead=0;swimlaneBody=0;strokeColor=inherit;top=0;left=0;bottom=0;right=0;collapsible=0;dropTarget=0;fillColor=none;points=[[0,0.5],[1,0.5]];portConstraint=eastwest;" parent="0rQHscwgg67SrnU-Jx7H-39" vertex="1">
          <mxGeometry y="280" width="750" height="40" as="geometry" />
        </mxCell>
        <mxCell id="0rQHscwgg67SrnU-Jx7H-56" style="shape=partialRectangle;html=1;whiteSpace=wrap;connectable=0;strokeColor=inherit;overflow=hidden;fillColor=none;top=0;left=0;bottom=0;right=0;pointerEvents=1;" parent="0rQHscwgg67SrnU-Jx7H-55" vertex="1">
          <mxGeometry width="188" height="40" as="geometry">
            <mxRectangle width="188" height="40" as="alternateBounds" />
          </mxGeometry>
        </mxCell>
        <mxCell id="0rQHscwgg67SrnU-Jx7H-57" style="shape=partialRectangle;html=1;whiteSpace=wrap;connectable=0;strokeColor=inherit;overflow=hidden;fillColor=none;top=0;left=0;bottom=0;right=0;pointerEvents=1;" parent="0rQHscwgg67SrnU-Jx7H-55" vertex="1">
          <mxGeometry x="188" width="187" height="40" as="geometry">
            <mxRectangle width="187" height="40" as="alternateBounds" />
          </mxGeometry>
        </mxCell>
        <mxCell id="0rQHscwgg67SrnU-Jx7H-58" style="shape=partialRectangle;html=1;whiteSpace=wrap;connectable=0;strokeColor=inherit;overflow=hidden;fillColor=none;top=0;left=0;bottom=0;right=0;pointerEvents=1;" parent="0rQHscwgg67SrnU-Jx7H-55" vertex="1">
          <mxGeometry x="375" width="188" height="40" as="geometry">
            <mxRectangle width="188" height="40" as="alternateBounds" />
          </mxGeometry>
        </mxCell>
        <mxCell id="0rQHscwgg67SrnU-Jx7H-59" style="shape=partialRectangle;html=1;whiteSpace=wrap;connectable=0;strokeColor=inherit;overflow=hidden;fillColor=none;top=0;left=0;bottom=0;right=0;pointerEvents=1;" parent="0rQHscwgg67SrnU-Jx7H-55" vertex="1">
          <mxGeometry x="563" width="187" height="40" as="geometry">
            <mxRectangle width="187" height="40" as="alternateBounds" />
          </mxGeometry>
        </mxCell>
        <mxCell id="0rQHscwgg67SrnU-Jx7H-1" value="Home" parent="0" visible="0" />
        <mxCell id="0rQHscwgg67SrnU-Jx7H-2" value="&lt;h1 style=&quot;margin-top: 0px;&quot;&gt;Events&lt;/h1&gt;&lt;p&gt;Lorem ipsum dolor sit amet, consectetur adipisicing elit, sed do eiusmod tempor incididunt ut labore et dolore magna aliqua.&lt;/p&gt;" style="text;html=1;whiteSpace=wrap;overflow=hidden;rounded=0;fontFamily=Gochi Hand;fontSource=https%3A%2F%2Ffonts.googleapis.com%2Fcss%3Ffamily%3DGochi%2BHand;fontSize=13;fillColor=#eeeeee;strokeColor=#36393d;sketch=1;curveFitting=1;jiggle=2;" parent="0rQHscwgg67SrnU-Jx7H-1" vertex="1">
          <mxGeometry x="290" y="170" width="720" height="110" as="geometry" />
        </mxCell>
        <mxCell id="0rQHscwgg67SrnU-Jx7H-3" value="Welcome / Info" style="text;html=1;align=left;verticalAlign=middle;whiteSpace=wrap;rounded=0;fontFamily=Gochi Hand;fontSource=https%3A%2F%2Ffonts.googleapis.com%2Fcss%3Ffamily%3DGochi%2BHand;fontSize=24;fontStyle=1" parent="0rQHscwgg67SrnU-Jx7H-1" vertex="1">
          <mxGeometry x="290" y="110" width="750" height="50" as="geometry" />
        </mxCell>
        <mxCell id="0rQHscwgg67SrnU-Jx7H-4" value="&lt;h1 style=&quot;margin-top: 0px;&quot;&gt;Batteries&lt;/h1&gt;&lt;p&gt;Lorem ipsum dolor sit amet, consectetur adipisicing elit, sed do eiusmod tempor incididunt ut labore et dolore magna aliqua.&lt;/p&gt;" style="text;html=1;whiteSpace=wrap;overflow=hidden;rounded=0;fontFamily=Gochi Hand;fontSource=https%3A%2F%2Ffonts.googleapis.com%2Fcss%3Ffamily%3DGochi%2BHand;fontSize=13;fillColor=#eeeeee;strokeColor=#36393d;sketch=1;curveFitting=1;jiggle=2;" parent="0rQHscwgg67SrnU-Jx7H-1" vertex="1">
          <mxGeometry x="290" y="300" width="720" height="110" as="geometry" />
        </mxCell>
        <mxCell id="0rQHscwgg67SrnU-Jx7H-5" value="&lt;h1 style=&quot;margin-top: 0px;&quot;&gt;BC Calibration&lt;br&gt;&lt;/h1&gt;&lt;p&gt;Lorem ipsum dolor sit amet, consectetur adipisicing elit, sed do eiusmod tempor incididunt ut labore et dolore magna aliqua.&lt;/p&gt;" style="text;html=1;whiteSpace=wrap;overflow=hidden;rounded=0;fontFamily=Gochi Hand;fontSource=https%3A%2F%2Ffonts.googleapis.com%2Fcss%3Ffamily%3DGochi%2BHand;fontSize=13;fillColor=#eeeeee;strokeColor=#36393d;sketch=1;curveFitting=1;jiggle=2;" parent="0rQHscwgg67SrnU-Jx7H-1" vertex="1">
          <mxGeometry x="290" y="430" width="720" height="110" as="geometry" />
        </mxCell>
        <mxCell id="0rQHscwgg67SrnU-Jx7H-6" value="&lt;h1 style=&quot;margin-top: 0px;&quot;&gt;Logs&lt;/h1&gt;&lt;p&gt;Lorem ipsum dolor sit amet, consectetur adipisicing elit, sed do eiusmod tempor incididunt ut labore et dolore magna aliqua.&lt;/p&gt;" style="text;html=1;whiteSpace=wrap;overflow=hidden;rounded=0;fontFamily=Gochi Hand;fontSource=https%3A%2F%2Ffonts.googleapis.com%2Fcss%3Ffamily%3DGochi%2BHand;fontSize=13;fillColor=#eeeeee;strokeColor=#36393d;sketch=1;curveFitting=1;jiggle=2;" parent="0rQHscwgg67SrnU-Jx7H-1" vertex="1">
          <mxGeometry x="290" y="560" width="720" height="110" as="geometry" />
        </mxCell>
        <mxCell id="0rQHscwgg67SrnU-Jx7H-7" value="&lt;h1 style=&quot;margin-top: 0px;&quot;&gt;Search&lt;/h1&gt;&lt;p&gt;Lorem ipsum dolor sit amet, consectetur adipisicing elit, sed do eiusmod tempor incididunt ut labore et dolore magna aliqua.&lt;/p&gt;" style="text;html=1;whiteSpace=wrap;overflow=hidden;rounded=0;fontFamily=Gochi Hand;fontSource=https%3A%2F%2Ffonts.googleapis.com%2Fcss%3Ffamily%3DGochi%2BHand;fontSize=13;fillColor=#eeeeee;strokeColor=#36393d;sketch=1;curveFitting=1;jiggle=2;" parent="0rQHscwgg67SrnU-Jx7H-1" vertex="1">
          <mxGeometry x="290" y="700" width="720" height="110" as="geometry" />
        </mxCell>
        <mxCell id="0rQHscwgg67SrnU-Jx7H-8" value="" style="endArrow=none;html=1;rounded=0;sketch=1;curveFitting=1;jiggle=2;fillColor=#ffcc99;strokeColor=light-dark(#36393D,#FF8000);" parent="0rQHscwgg67SrnU-Jx7H-1" edge="1">
          <mxGeometry width="50" height="50" relative="1" as="geometry">
            <mxPoint x="260" y="810" as="sourcePoint" />
            <mxPoint x="270" y="120" as="targetPoint" />
          </mxGeometry>
        </mxCell>
        <object label="Base" id="1">
          <mxCell parent="0" />
        </object>
        <mxCell id="RAU7zCzu4grKgCSQ7b7e-1" value="" style="rounded=1;whiteSpace=wrap;html=1;sketch=1;curveFitting=1;jiggle=2;fillColor=#fa6800;fontColor=#000000;strokeColor=#C73500;" parent="1" vertex="1">
          <mxGeometry x="110" y="40" width="940" height="50" as="geometry" />
        </mxCell>
        <mxCell id="RAU7zCzu4grKgCSQ7b7e-2" value="Logo" style="ellipse;whiteSpace=wrap;html=1;sketch=1;curveFitting=1;jiggle=2;fontFamily=Gochi Hand;fontSource=https%3A%2F%2Ffonts.googleapis.com%2Fcss%3Ffamily%3DGochi%2BHand;" parent="1" vertex="1">
          <mxGeometry x="130" y="50" width="50" height="30" as="geometry" />
        </mxCell>
        <mxCell id="RAU7zCzu4grKgCSQ7b7e-3" value="Battery Capacity Meter" style="text;html=1;align=center;verticalAlign=middle;whiteSpace=wrap;rounded=0;fontFamily=Gochi Hand;fontSource=https%3A%2F%2Ffonts.googleapis.com%2Fcss%3Ffamily%3DGochi%2BHand;fontSize=36;" parent="1" vertex="1">
          <mxGeometry x="200" y="50" width="630" height="30" as="geometry" />
        </mxCell>
        <mxCell id="RAU7zCzu4grKgCSQ7b7e-4" value="search" style="rounded=1;whiteSpace=wrap;html=1;sketch=1;curveFitting=1;jiggle=2;fontFamily=Gochi Hand;fontSource=https%3A%2F%2Ffonts.googleapis.com%2Fcss%3Ffamily%3DGochi%2BHand;fontSize=16;" parent="1" vertex="1">
          <mxGeometry x="850" y="55" width="100" height="20" as="geometry" />
        </mxCell>
        <mxCell id="RAU7zCzu4grKgCSQ7b7e-6" value="" style="rounded=0;whiteSpace=wrap;html=1;sketch=1;curveFitting=1;jiggle=2;dashed=1;dashPattern=12 12;" parent="1" vertex="1">
          <mxGeometry x="970" y="55" width="20" height="20" as="geometry" />
        </mxCell>
        <mxCell id="RAU7zCzu4grKgCSQ7b7e-7" value="x.y.z" style="rounded=1;whiteSpace=wrap;html=1;sketch=1;curveFitting=1;jiggle=2;fontFamily=Gochi Hand;fontSource=https%3A%2F%2Ffonts.googleapis.com%2Fcss%3Ffamily%3DGochi%2BHand;fontSize=10;" parent="1" vertex="1">
          <mxGeometry x="1010" y="55" width="30" height="20" as="geometry" />
        </mxCell>
        <mxCell id="RAU7zCzu4grKgCSQ7b7e-10" value="" style="group" parent="1" vertex="1" connectable="0">
          <mxGeometry x="110" y="110" width="140" height="270" as="geometry" />
        </mxCell>
        <mxCell id="RAU7zCzu4grKgCSQ7b7e-8" value="" style="rounded=1;whiteSpace=wrap;html=1;fontFamily=Gochi Hand;fontSource=https%3A%2F%2Ffonts.googleapis.com%2Fcss%3Ffamily%3DGochi%2BHand;sketch=1;curveFitting=1;jiggle=2;fillColor=#bac8d3;strokeColor=#23445d;fontSize=21;labelPosition=center;verticalLabelPosition=middle;align=center;verticalAlign=middle;" parent="RAU7zCzu4grKgCSQ7b7e-10" vertex="1">
          <mxGeometry width="140" height="260" as="geometry" />
        </mxCell>
        <mxCell id="RAU7zCzu4grKgCSQ7b7e-9" value="Menu" style="text;html=1;align=center;verticalAlign=middle;whiteSpace=wrap;rounded=0;fontFamily=Gochi Hand;fontSource=https%3A%2F%2Ffonts.googleapis.com%2Fcss%3Ffamily%3DGochi%2BHand;fontSize=24;" parent="RAU7zCzu4grKgCSQ7b7e-10" vertex="1">
          <mxGeometry x="35" y="10" width="70" height="30" as="geometry" />
        </mxCell>
        <mxCell id="RAU7zCzu4grKgCSQ7b7e-11" value="BC Callibration" style="rounded=1;whiteSpace=wrap;html=1;sketch=1;curveFitting=1;jiggle=2;fontFamily=Gochi Hand;fontSource=https%3A%2F%2Ffonts.googleapis.com%2Fcss%3Ffamily%3DGochi%2BHand;fontSize=16;fillColor=light-dark(#BAC8D3,#9DBDD6);strokeColor=#23445d;" parent="RAU7zCzu4grKgCSQ7b7e-10" vertex="1">
          <mxGeometry x="17.92" y="170" width="104.17" height="30" as="geometry" />
        </mxCell>
        <mxCell id="RAU7zCzu4grKgCSQ7b7e-13" value="Events" style="rounded=1;whiteSpace=wrap;html=1;sketch=1;curveFitting=1;jiggle=2;fontFamily=Gochi Hand;fontSource=https%3A%2F%2Ffonts.googleapis.com%2Fcss%3Ffamily%3DGochi%2BHand;fontSize=16;fillColor=light-dark(#BAC8D3,#9DBDD6);strokeColor=#23445d;" parent="RAU7zCzu4grKgCSQ7b7e-10" vertex="1">
          <mxGeometry x="17.92" y="50" width="104.17" height="30" as="geometry" />
        </mxCell>
        <mxCell id="RAU7zCzu4grKgCSQ7b7e-14" value="Batteries" style="rounded=1;whiteSpace=wrap;html=1;sketch=1;curveFitting=1;jiggle=2;fontFamily=Gochi Hand;fontSource=https%3A%2F%2Ffonts.googleapis.com%2Fcss%3Ffamily%3DGochi%2BHand;fontSize=16;fillColor=light-dark(#BAC8D3,#9DBDD6);strokeColor=#23445d;" parent="RAU7zCzu4grKgCSQ7b7e-10" vertex="1">
          <mxGeometry x="17.919999999999945" y="130" width="104.17" height="30" as="geometry" />
        </mxCell>
        <mxCell id="RAU7zCzu4grKgCSQ7b7e-15" value="Logs" style="rounded=1;whiteSpace=wrap;html=1;sketch=1;curveFitting=1;jiggle=2;fontFamily=Gochi Hand;fontSource=https%3A%2F%2Ffonts.googleapis.com%2Fcss%3Ffamily%3DGochi%2BHand;fontSize=16;fillColor=light-dark(#BAC8D3,#9DBDD6);strokeColor=#23445d;" parent="RAU7zCzu4grKgCSQ7b7e-10" vertex="1">
          <mxGeometry x="19.999999999999943" y="210" width="104.17" height="30" as="geometry" />
        </mxCell>
        <mxCell id="0rQHscwgg67SrnU-Jx7H-224" value="State" style="rounded=1;whiteSpace=wrap;html=1;sketch=1;curveFitting=1;jiggle=2;fontFamily=Gochi Hand;fontSource=https%3A%2F%2Ffonts.googleapis.com%2Fcss%3Ffamily%3DGochi%2BHand;fontSize=16;fillColor=light-dark(#BAC8D3,#9DBDD6);strokeColor=#23445d;" parent="RAU7zCzu4grKgCSQ7b7e-10" vertex="1">
          <mxGeometry x="17.909999999999997" y="90" width="104.17" height="30" as="geometry" />
        </mxCell>
        <mxCell id="RAU7zCzu4grKgCSQ7b7e-16" value="Notes" parent="0" visible="0" />
        <mxCell id="RAU7zCzu4grKgCSQ7b7e-18" value="animated, click to home" style="rounded=1;whiteSpace=wrap;html=1;fillColor=light-dark(#CDEB8B,#66CC00);strokeColor=#36393d;fontColor=light-dark(#000000,#2E2E2E);" parent="RAU7zCzu4grKgCSQ7b7e-16" vertex="1">
          <mxGeometry x="40" y="100" width="90" height="40" as="geometry" />
        </mxCell>
        <mxCell id="RAU7zCzu4grKgCSQ7b7e-19" value="" style="endArrow=none;html=1;rounded=0;fillColor=#cdeb8b;strokeColor=light-dark(#36393D,#00FF00);" parent="RAU7zCzu4grKgCSQ7b7e-16" source="RAU7zCzu4grKgCSQ7b7e-2" target="RAU7zCzu4grKgCSQ7b7e-18" edge="1">
          <mxGeometry width="50" height="50" relative="1" as="geometry">
            <mxPoint x="440" y="370" as="sourcePoint" />
            <mxPoint x="490" y="320" as="targetPoint" />
          </mxGeometry>
        </mxCell>
        <mxCell id="RAU7zCzu4grKgCSQ7b7e-20" value="open webcam label scan for search" style="rounded=1;whiteSpace=wrap;html=1;fillColor=light-dark(#CDEB8B,#66CC00);strokeColor=#36393d;fontColor=light-dark(#000000,#2E2E2E);" parent="RAU7zCzu4grKgCSQ7b7e-16" vertex="1">
          <mxGeometry x="930" y="110.00247420314639" width="90" height="40" as="geometry" />
        </mxCell>
        <mxCell id="RAU7zCzu4grKgCSQ7b7e-21" value="" style="endArrow=none;html=1;rounded=0;fillColor=#cdeb8b;strokeColor=light-dark(#36393D,#00FF00);" parent="RAU7zCzu4grKgCSQ7b7e-16" source="RAU7zCzu4grKgCSQ7b7e-6" target="RAU7zCzu4grKgCSQ7b7e-20" edge="1">
          <mxGeometry width="50" height="50" relative="1" as="geometry">
            <mxPoint x="950" y="100.00163315253754" as="sourcePoint" />
            <mxPoint x="860" y="494.1224742031464" as="targetPoint" />
          </mxGeometry>
        </mxCell>
        <mxCell id="RAU7zCzu4grKgCSQ7b7e-22" value="&lt;div&gt;current&lt;/div&gt;&lt;div&gt;&amp;nbsp;version&lt;/div&gt;" style="rounded=1;whiteSpace=wrap;html=1;fillColor=light-dark(#CDEB8B,#66CC00);strokeColor=#36393d;fontColor=light-dark(#000000,#2E2E2E);" parent="RAU7zCzu4grKgCSQ7b7e-16" vertex="1">
          <mxGeometry x="1040" y="123.03999999999999" width="50" height="26.96" as="geometry" />
        </mxCell>
        <mxCell id="RAU7zCzu4grKgCSQ7b7e-23" value="" style="endArrow=none;html=1;rounded=0;fillColor=#cdeb8b;strokeColor=light-dark(#36393D,#00FF00);" parent="RAU7zCzu4grKgCSQ7b7e-16" source="RAU7zCzu4grKgCSQ7b7e-7" target="RAU7zCzu4grKgCSQ7b7e-22" edge="1">
          <mxGeometry width="50" height="50" relative="1" as="geometry">
            <mxPoint x="470" y="190.0424742031464" as="sourcePoint" />
            <mxPoint x="820" y="433.0424742031464" as="targetPoint" />
          </mxGeometry>
        </mxCell>
        <mxCell id="RAU7zCzu4grKgCSQ7b7e-24" value="search on bat id or part" style="rounded=1;whiteSpace=wrap;html=1;fillColor=light-dark(#CDEB8B,#66CC00);strokeColor=#36393d;fontColor=light-dark(#000000,#2E2E2E);" parent="RAU7zCzu4grKgCSQ7b7e-16" vertex="1">
          <mxGeometry x="810" y="123.03999999999999" width="80" height="47" as="geometry" />
        </mxCell>
        <mxCell id="RAU7zCzu4grKgCSQ7b7e-25" value="" style="endArrow=none;html=1;rounded=0;fillColor=#cdeb8b;strokeColor=light-dark(#36393D,#00FF00);" parent="RAU7zCzu4grKgCSQ7b7e-16" source="RAU7zCzu4grKgCSQ7b7e-4" target="RAU7zCzu4grKgCSQ7b7e-24" edge="1">
          <mxGeometry width="50" height="50" relative="1" as="geometry">
            <mxPoint x="850" y="150.0024742031464" as="sourcePoint" />
            <mxPoint x="1200" y="393.0024742031464" as="targetPoint" />
          </mxGeometry>
        </mxCell>
      </root>
    </mxGraphModel>
  </diagram>
</mxfile>
